<?xml version="1.0" encoding="UTF-8"?>
<svg width="232px" height="90px" viewBox="0 0 232 90" version="1.1" xmlns="http://www.w3.org/2000/svg" xmlns:xlink="http://www.w3.org/1999/xlink">
    <!-- Generator: Sketch 58 (84663) - https://sketch.com -->
    <title>Group 10</title>
    <desc>Created with Sketch.</desc>
    <g id="Page-1" stroke="none" stroke-width="1" fill="none" fill-rule="evenodd">
        <g id="Home" transform="translate(-1025.000000, -3542.000000)">
            <g id="Awards" transform="translate(343.000000, 3351.000000)">
                <g id="Group-10" transform="translate(660.000000, 187.000000)">
                    <text id="2018" font-family="Butler" font-size="42" font-weight="normal" line-spacing="49" fill="#F9FBF9">
                        <tspan x="97.29" y="31">2018</tspan>
                    </text>
                    <text id="award-hreading" opacity="0.483654204" font-family="BrandonGrotesque-Bold, Brandon Grotesque" font-size="11" font-weight="bold" line-spacing="32" letter-spacing="2.5" fill="#F9FBF9">
                        <tspan x="72.434" y="60">AWARD HREADING</tspan>
                    </text>
                    <g id="Group-18" opacity="0.21" transform="translate(45.000000, 49.357143) rotate(30.000000) translate(-45.000000, -49.357143) translate(16.000000, 10.000000)" fill="#FFFFFF" fill-rule="nonzero">
                        <path d="M45.2038288,59.9747619 C44.5547812,63.5238095 47.344305,70.1247619 57.4390669,71.2985714 C57.3418595,70.7819482 57.2033189,70.2739661 57.0247812,69.7795238 C55.1604955,64.3247619 50.7828764,61.3833333 45.2038288,59.9747619 Z" id="Path"></path>
                        <path d="M43.6295431,67.6390476 C43.4500193,63.6480952 40.4809717,57.972381 33.2033526,55.2104762 C31.5462098,59.3947619 34.8604955,65.8438095 43.6295431,67.6390476 Z" id="Path"></path>
                        <path d="M6.52335263,16.8614286 C9.36811453,14.0028571 10.6662098,7.47095238 7.03430501,-4.36983782e-13 C4.4795431,2.23714286 1.41382882,9.74952381 6.52335263,16.8614286 Z" id="Path"></path>
                        <path d="M28.8119241,59.6709524 C30.1928764,55.3071429 29.1571622,49.7280952 24.0890669,44.8395238 C21.1476383,47.9604762 21.3685907,54.8652381 28.8119241,59.6709524 Z" id="Path"></path>
                        <path d="M17.9990669,34.2614286 C15.0852574,36.1395238 12.8895431,42.1190476 18.1647812,48.7614286 C20.0704955,46.2342857 21.7552574,40.7933333 17.9990669,34.2614286 Z" id="Path"></path>
                        <path d="M14.3809717,23.4347619 C11.094305,24.94 8.74668596,30.5466667 12.3095431,37.2442857 C15.3062098,34.5790476 16.8804955,29.5938095 14.3809717,23.4347619 Z" id="Path"></path>
                        <path d="M11.9090669,13.5195238 C9.63049549,14.2652381 6.08144787,18.1457143 8.48430501,25.4371429 C11.1771622,23.7661905 13.5662098,19.6233333 11.9090669,13.5195238 Z" id="Path"></path>
                        <path d="M39.3624002,76.0214286 C45.7838288,79.0042857 52.6885907,78.6452381 56.5552574,73.4804762 C56.8780966,73.0498061 57.1557501,72.5870502 57.3838288,72.0995238 C51.3904955,71.1604762 42.6490669,71.1052381 39.3624002,76.0214286 Z" id="Path"></path>
                        <path d="M43.1185907,69.1028571 C37.8571622,66.5757143 29.5714479,63.5790476 24.7795431,66.9761905 C31.5600193,73.8809524 39.7490669,73.1628571 43.1185907,69.1028571 Z" id="Path"></path>
                        <path d="M11.3704955,53.6914286 C15.5133526,61.6180952 23.6885907,63.6480952 28.1628764,60.4028571 C23.854305,56.7433333 16.7009717,51.7442857 11.3704955,53.6914286 Z" id="Path"></path>
                        <path d="M15.7619241,49.7833333 C16.2291132,49.7621147 16.6923898,49.6879904 17.1428764,49.562381 C14.3809717,45.0466667 9.67192406,38.9566667 4.43811453,39.4952381 C5.90192406,45.6266667 10.2381145,50.17 15.7619241,49.7833333 Z" id="Path"></path>
                        <path d="M11.0528764,37.3685714 C9.14716215,32.6042857 5.3495431,26.5280952 0.378114534,26.5280952 C1.44144787,34.247619 6.70287644,37.9485714 11.0528764,37.3685714 Z" id="Path"></path>
                        <path d="M7.13097168,25.5890476 C6.48192406,21.0042857 4.36906691,15.2042857 0.0328764383,14.4033333 C-0.436647371,22.0538095 4.23097168,25.2852381 7.13097168,25.5890476 Z" id="Path"></path>
                    </g>
                    <g id="Group-17" opacity="0.21" transform="translate(231.733807, 48.698571) rotate(-30.000000) translate(-231.733807, -48.698571) translate(203.233807, 10.020000)" fill="#FFFFFF" fill-rule="nonzero">
                        <path d="M12.0242857,58.9135714 C6.59571429,60.2707143 2.23928571,63.1885714 0.407142857,68.5492857 C0.231683418,69.0352031 0.0955314697,69.5344269 -4.89208674e-12,70.0421429 C9.92071429,68.8885714 12.6621429,62.4014286 12.0242857,58.9135714 Z" id="Path"></path>
                        <path d="M13.5714286,66.4457143 C22.1892857,64.6814286 25.4464286,58.3028571 23.8178571,54.2314286 C16.6657143,56.9728571 13.8157143,62.5235714 13.5714286,66.4457143 Z" id="Path"></path>
                        <path d="M49.5357143,2.54019028e-13 C45.9664286,7.34214286 47.2421429,13.8292857 50.0378571,16.5435714 C55.0592857,9.55428571 52.0464286,2.17142857 49.5357143,2.54019028e-13 Z" id="Path"></path>
                        <path d="M28.1335714,58.615 C35.4485714,53.96 35.6657143,47.1742857 32.775,44.0392857 C27.7942857,48.7757143 26.7357143,54.2585714 28.1335714,58.615 Z" id="Path"></path>
                        <path d="M38.76,33.6435714 C35.0685714,40.0628571 36.7242857,45.41 38.5971429,47.8935714 C43.7814286,41.3657143 41.6235714,35.5435714 38.76,33.6435714 Z" id="Path"></path>
                        <path d="M44.3378571,36.5207143 C47.8392857,29.9928571 45.5321429,24.4828571 42.3021429,22.9492857 C39.8592857,29.0564286 41.4064286,33.9557143 44.3378571,36.5207143 Z" id="Path"></path>
                        <path d="M48.1107143,24.9714286 C50.4721429,17.8057143 46.9842857,13.9921429 44.745,13.2592857 C43.1164286,19.2578571 45.4642857,23.3292857 48.1107143,24.9714286 Z" id="Path"></path>
                        <path d="M0.0542857143,70.8292857 C0.278432027,71.3084065 0.551298421,71.7631838 0.868571429,72.1864286 C4.66857143,77.2757143 11.4542857,77.615 17.765,74.6971429 C14.535,69.8521429 5.94428571,69.9064286 0.0542857143,70.8292857 Z" id="Path"></path>
                        <path d="M14.0735714,67.8842857 C17.385,71.8742857 25.4328571,72.58 32.0964286,65.7942857 C27.3871429,62.4557143 19.2442857,65.4007143 14.0735714,67.8842857 Z" id="Path"></path>
                        <path d="M28.7442857,59.3342857 C33.1414286,62.5235714 41.1485714,60.5285714 45.2471429,52.7385714 C40.0357143,50.825 33.0057143,55.7378571 28.7442857,59.3342857 Z" id="Path"></path>
                        <path d="M39.6014286,48.6807143 C40.0441482,48.8041581 40.4994373,48.8770043 40.9585714,48.8978571 C46.3057143,49.2778571 50.6078571,44.8264286 52.0464286,38.7871429 C46.9435714,38.2578571 42.3157143,44.2428571 39.6014286,48.6807143 Z" id="Path"></path>
                        <path d="M45.5864286,36.6971429 C49.8614286,37.2671429 55.0864286,33.63 56.0771429,26.0028571 C51.1914286,26.0435714 47.4592857,32.015 45.5864286,36.6971429 Z" id="Path"></path>
                        <path d="M49.4407143,25.1207143 C52.2907143,24.8221429 56.8778571,21.6464286 56.4164286,14.1278571 C52.1142857,14.915 50.0785714,20.615 49.4407143,25.1207143 Z" id="Path"></path>
                    </g>
                    <path d="M131,88.5 L146,88.5" id="Line-9" stroke="#C2735D" stroke-linecap="square"></path>
                </g>
            </g>
        </g>
    </g>
</svg>