<?xml version="1.0" encoding="UTF-8"?>
<svg width="9px" height="16px" viewBox="0 0 9 16" version="1.1" xmlns="http://www.w3.org/2000/svg" xmlns:xlink="http://www.w3.org/1999/xlink">
    <!-- Generator: Sketch 58 (84663) - https://sketch.com -->
    <title>Path</title>
    <desc>Created with Sketch.</desc>
    <g id="Page-1" stroke="none" stroke-width="1" fill="none" fill-rule="evenodd">
        <g id="Home" transform="translate(-1296.000000, -7802.000000)" fill="#2D4032">
            <g id="Instagram" transform="translate(0.000000, 2952.000000)">
                <g id="Footer" transform="translate(0.000000, 4474.000000)">
                    <g id="Group-8" transform="translate(1215.000000, 358.000000)">
                        <path d="M88.7949776,18.0031834 L86.8521559,18 C84.6694625,18 83.2589101,19.4779033 83.2589101,21.7653505 L83.2589101,23.5014293 L81.3054898,23.5014293 C81.1366911,23.5014293 81,23.6411815 81,23.8135637 L81,26.3289439 C81,26.5013262 81.136847,26.6409192 81.3054898,26.6409192 L83.2589101,26.6409192 L83.2589101,32.9880243 C83.2589101,33.1604066 83.3956012,33.2999996 83.5643999,33.2999996 L86.1130576,33.2999996 C86.2818564,33.2999996 86.4185475,33.1602474 86.4185475,32.9880243 L86.4185475,26.6409192 L88.7025513,26.6409192 C88.87135,26.6409192 89.0080411,26.5013262 89.0080411,26.3289439 L89.0089763,23.8135637 C89.0089763,23.7307948 88.9767128,23.6515276 88.9195114,23.5929526 C88.86231,23.5343777 88.7843789,23.5014293 88.7033306,23.5014293 L86.4185475,23.5014293 L86.4185475,22.0297337 C86.4185475,21.3223775 86.5836055,20.9632876 87.4858914,20.9632876 L88.7946658,20.9628101 C88.9633087,20.9628101 89.0999998,20.8230579 89.0999998,20.6508348 L89.0999998,18.3151587 C89.0999998,18.1430948 88.9634645,18.0035018 88.7949776,18.0031834 Z" id="Path"></path>
                    </g>
                </g>
            </g>
        </g>
    </g>
</svg>