<?xml version="1.0" encoding="UTF-8"?>
<svg width="127px" height="65px" viewBox="0 0 127 65" version="1.1" xmlns="http://www.w3.org/2000/svg" xmlns:xlink="http://www.w3.org/1999/xlink">
    <!-- Generator: Sketch 58 (84663) - https://sketch.com -->
    <title>Group 27</title>
    <desc>Created with Sketch.</desc>
    <defs>
        <polygon id="path-1" points="0.0324025105 0.205663096 42.7854718 0.205663096 42.7854718 45.1330219 0.0324025105 45.1330219"></polygon>
        <polygon id="path-3" points="0 0.232728291 11.4814968 0.232728291 11.4814968 11.6997079 0 11.6997079"></polygon>
        <polygon id="path-5" points="0 84.952797 126.683996 84.952797 126.683996 0.745199974 0 0.745199974"></polygon>
    </defs>
    <g id="Page-1" stroke="none" stroke-width="1" fill="none" fill-rule="evenodd">
        <g id="Home" transform="translate(-101.000000, -7510.000000)">
            <g id="Instagram" transform="translate(0.000000, 2952.000000)">
                <g id="Footer" transform="translate(0.000000, 4474.000000)">
                    <g id="Group-27" transform="translate(101.000000, 84.000000)">
                        <g id="Group-3" transform="translate(41.731199, 0.000000)">
                            <mask id="mask-2" fill="white">
                                <use xlink:href="#path-1"></use>
                            </mask>
                            <g id="Clip-2"></g>
                            <path d="M41.0651305,3.00669864 L36.8420762,7.48853242 L29.1615377,15.2329643 L31.0875164,15.2329643 C31.4984259,15.2329643 31.8319018,15.5694704 31.8319018,15.9844823 C31.8319018,16.3994942 31.4984259,16.7360003 31.0875164,16.7360003 L26.7088643,16.7360003 L24.8172194,18.0993476 C24.4797257,18.327125 24.0249859,18.2500935 23.7799011,17.9239074 C23.6644812,17.7617358 23.6180941,17.5597584 23.6516974,17.3633096 C23.6798218,17.211458 23.7554292,17.0721378 23.8675618,16.9663577 C23.9344031,16.9243405 23.9939394,16.8716348 24.043979,16.8104518 L28.8532642,13.3455078 L28.8532642,6.21659094 C28.8532642,5.80157903 29.1867402,5.46507293 29.598015,5.46507293 C30.0089245,5.46507293 30.3427657,5.80157903 30.3427657,6.21659094 L30.3427657,11.9165547 L35.5023285,6.71121437 L34.8207665,2.57841814 C34.7875285,2.38233791 34.8335504,2.18109768 34.9489703,2.01966321 C35.1239264,1.77235149 35.4292779,1.65588278 35.7229412,1.72406858 C36.0162393,1.79299151 36.2394089,2.03293179 36.2894485,2.33258071 L36.7960543,5.40130999 L40.0062623,1.94521169 C40.1454236,1.79852009 40.3375467,1.71485428 40.5384358,1.71301142 C40.7393249,1.71079999 40.9332742,1.79041151 41.0753576,1.93341739 C41.2159799,2.07384327 41.2948746,2.26550063 41.2934335,2.46489801 C41.2934335,2.66945539 41.2108664,2.86516705 41.0651305,3.00669864 L41.0651305,3.00669864 Z M28.1085135,21.9199635 L28.1085135,21.0936254 L30.3427657,21.0936254 C29.7952515,21.8278205 29.0008264,22.335344 28.1085135,22.5214728 L28.1085135,21.9199635 Z M34.5818911,21.0936254 L34.0657887,21.0936254 C33.6545139,21.0936254 33.321038,21.4301315 33.321038,21.8447748 C33.321038,22.2597867 33.6545139,22.5962928 34.0657887,22.5962928 L34.3638351,22.5962928 C34.3225615,22.8465531 34.2893235,23.0993934 34.2429364,23.3478109 L33.321038,23.3478109 C32.9097632,23.3478109 32.5766525,23.684317 32.5766525,24.0993289 C32.5766525,24.5139722 32.9097632,24.8504783 33.321038,24.8504783 L33.9171308,24.8504783 C32.1167991,32.3800328 27.6724015,38.9955291 21.4075834,43.47036 C13.1057497,37.5492531 8.12114307,27.9704391 8.00426214,17.7123472 L9.56827515,16.5480287 C9.82249119,17.542067 10.710421,18.2371935 11.7276504,18.2386678 L14.7128626,18.2386678 C14.7128626,18.2552535 14.7059228,18.2699964 14.7059228,18.2873193 L14.7059228,19.5909579 L10.9828997,19.5909579 C10.7012897,19.5909579 10.4430559,19.7520238 10.3170436,20.006707 C10.1910314,20.260653 10.2176949,20.5658305 10.3871722,20.7932393 L11.2809461,21.9955207 C12.1381947,23.1436221 13.422424,23.8899801 14.8370486,24.0624717 C15.2702385,28.0183534 16.9091284,31.7416663 19.5279919,34.7178841 C20.0053774,35.2600533 20.6894962,35.5700222 21.4086792,35.5700222 C22.1271317,35.5700222 22.8116156,35.2600533 23.2893665,34.7178841 C24.4245726,33.4286197 25.3837267,31.9915581 26.1401655,30.444662 C26.259238,30.203616 26.2417058,29.9168671 26.0937784,29.6924068 C25.9454857,29.4683151 25.6898087,29.3411578 25.4239046,29.3595864 C25.1572699,29.3772779 24.9209513,29.5379752 24.8040703,29.7801269 C24.106072,31.2050257 23.2214294,32.5293044 22.1742493,33.7168429 C21.9755517,33.9309832 21.6979595,34.0529804 21.4072182,34.0529804 C21.1161116,34.0529804 20.8385194,33.9309832 20.6398218,33.7168429 C18.3022031,31.0568598 16.8112406,27.749296 16.361249,24.223169 L20.6628327,27.4802385 L20.6628327,29.3588493 C20.6628327,29.7738612 20.9963086,30.1099987 21.4075834,30.1099987 C21.8188582,30.1099987 22.1519689,29.7738612 22.1519689,29.3588493 L22.1519689,27.1046638 C22.1519689,26.8684092 22.0416625,26.6457918 21.8539225,26.5035231 L16.2093038,22.2314067 C16.2093038,22.1274694 16.1950589,22.0264808 16.1950589,21.9225435 L16.1950589,18.7524569 L16.2808934,18.7089655 L17.1279149,19.3204262 C17.863169,19.8522754 18.8435079,19.883604 19.6109043,19.4007748 C20.3783007,18.9179457 20.7815399,18.0164189 20.6321515,17.1159979 C20.6080448,16.9711492 20.5696932,16.8285119 20.5185578,16.690666 C21.103693,16.5531887 21.7118391,16.5531887 22.296609,16.690666 C22.2451084,16.8288804 22.2067568,16.9722549 22.1826501,17.1174722 C22.0339922,18.0164189 22.4365009,18.9164714 23.2028015,19.3993006 C23.9683717,19.8821297 24.9468842,19.8522754 25.6825036,19.3233748 L26.5342734,18.7097026 L26.6179164,18.7524569 L26.6179164,21.9199635 C26.6182816,23.6120769 26.3790409,25.2957131 25.9064037,26.9192722 C25.8497895,27.1112981 25.8709741,27.3180669 25.9659399,27.4942443 C26.0612709,27.670053 26.2216169,27.8001589 26.4126442,27.8558132 C26.4809465,27.8760847 26.5518056,27.8860361 26.6230299,27.8860361 C26.9528533,27.8860361 27.2439599,27.6659987 27.3367341,27.3460784 C27.6453728,26.2727971 27.8597763,25.1748216 27.9788487,24.063946 C29.3931081,23.8903486 30.6766068,23.1432535 31.5338555,21.9955207 L32.4279946,20.7932393 C32.5967415,20.5658305 32.6241354,20.260653 32.4977579,20.006707 C32.3717457,19.7520238 32.1138771,19.5909579 31.8319018,19.5909579 L28.1085135,19.5909579 L28.1085135,18.2880564 C28.1085135,18.2714707 28.1037652,18.2563592 28.1023042,18.2408792 L31.0875164,18.2408792 C32.1029195,18.2371935 32.9882926,17.5424355 33.2421434,16.5502401 L34.8101742,17.7123472 C34.7933725,18.842757 34.7170347,19.9716926 34.5818911,21.0936254 L34.5818911,21.0936254 Z M14.7059228,21.9199635 L14.7059228,22.5214728 C13.8139751,22.335344 13.0199153,21.8278205 12.4720359,21.0936254 L14.7059228,21.0936254 L14.7059228,21.9199635 Z M38.9353407,0.903627622 L37.7694534,2.15935194 L37.7581305,2.09153472 C37.5839049,1.00387917 36.6528752,0.204815381 35.5611342,0.205552015 C35.4358524,0.205552015 35.3116664,0.216241109 35.1885762,0.237986848 C34.603441,0.33565839 34.0807641,0.664793059 33.7363306,1.15204505 C33.3915318,1.63966562 33.2534662,2.24522918 33.3517193,2.83531272 L33.9076342,6.20074235 L31.8319018,8.29128193 L31.8319018,6.21659094 C31.8319018,4.97192378 30.8318393,3.96240546 29.598015,3.96240546 C28.3645558,3.96240546 27.3641281,4.97192378 27.3641281,6.21659094 L27.3641281,10.3117928 L21.8491742,6.21659094 C21.5865573,6.02161643 21.2282442,6.02161643 20.9659926,6.21659094 L18.7321057,7.8777443 C18.5125887,8.03475591 18.3938815,8.29975908 18.4223713,8.56992225 C18.450861,8.83971685 18.6214341,9.07339141 18.8683451,9.18101439 C19.1156213,9.2882688 19.4012491,9.25251733 19.6152873,9.08739714 L21.4075834,7.75095558 L27.3641281,12.1837693 L27.3641281,12.5759298 L23.359495,15.4581617 C22.1041207,14.9683297 20.7121418,14.9683297 19.4567675,15.4581617 L15.4506735,12.5718755 L15.4506735,12.1804522 L17.8335836,10.4087272 C18.0578488,10.2531899 18.1802086,9.98671247 18.1531799,9.71360072 C18.1257859,9.44085755 17.9530213,9.20386584 17.7024578,9.09734858 C17.4518942,8.99009417 17.1637097,9.02953136 16.950402,9.19981155 L15.4506735,10.3140043 L15.4506735,6.21659094 C15.4506735,4.97192378 14.450611,3.96240546 13.2167866,3.96240546 C11.9829622,3.96240546 10.9828997,4.97192378 10.9828997,6.21659094 L10.9828997,8.29017621 L8.90680211,6.19631949 L9.46308231,2.83088986 C9.65009181,1.61091702 8.82936849,0.4665014 7.62257283,0.263786878 C6.41614243,0.0607037849 5.27217027,0.874879017 5.05667105,2.09006043 L5.04571346,2.15935194 L3.8451271,0.866770436 C2.96121502,0.0157380183 1.57069715,0.0157380183 0.686785072,0.866770436 C-0.17557708,1.73660002 -0.186899921,3.14380737 0.660486861,4.02801125 L4.93613758,8.56255081 L6.20173896,9.8396523 C6.49430655,10.1245583 6.95854302,10.1201355 7.24563181,9.83080657 C7.53272061,9.54110909 7.53710365,9.07228569 7.25476314,8.7774282 L6.00158036,7.51359531 L1.72629489,2.97868718 C1.44578065,2.68309255 1.45198995,2.21537486 1.739444,1.92715167 C2.02835906,1.65182849 2.47762015,1.64445705 2.77493603,1.90982879 L6.01874725,5.40499571 L6.5257183,2.33737215 C6.58269776,1.97543458 6.89097123,1.70895713 7.25403263,1.70785141 C7.3000545,1.70821999 7.34534586,1.71227428 7.39027197,1.72112 C7.79205019,1.79336009 8.06124159,2.1781491 7.99440031,2.58431529 L7.31283835,6.71121437 L12.4720359,11.918029 L12.4720359,6.21659094 C12.4720359,5.80157903 12.8055118,5.46507293 13.2167866,5.46507293 C13.6276961,5.46507293 13.9611721,5.80157903 13.9611721,6.21659094 L13.9611721,13.3447707 L18.8011385,16.8310919 C18.8372986,16.8712662 18.8771112,16.9066491 18.9213068,16.9372405 C19.04878,17.0467064 19.1349797,17.1967151 19.1652957,17.3633096 C19.198899,17.5593898 19.1528771,17.7613672 19.0374572,17.9231703 C18.7927377,18.2548849 18.332519,18.332285 17.9946601,18.0978733 L16.1063025,16.7360003 L11.7276504,16.7360003 C11.3163756,16.7360003 10.9828997,16.3994942 10.9828997,15.9844823 C10.9828997,15.5694704 11.3163756,15.2329643 11.7276504,15.2329643 L13.6521681,15.2329643 L9.7238729,11.268974 C9.53942017,11.061468 9.25671441,10.974485 8.98898402,11.0419337 C8.72161888,11.1097509 8.51269421,11.3209426 8.44658343,11.5914743 C8.3808379,11.8616375 8.46886385,12.1469121 8.6748665,12.3323038 L10.3992256,14.0723315 L6.82486045,16.7323146 C6.6320069,16.8723719 6.51695223,17.0968322 6.51512597,17.3367724 C6.51293445,28.4027739 11.9259828,38.7559573 20.979507,45.0010389 C21.103693,45.0883904 21.2508899,45.1344619 21.4021046,45.1330219 C21.5591634,45.1330219 21.7125696,45.0858104 21.8415039,44.9962475 C28.7225037,40.2438819 33.5785413,33.0519393 35.442427,24.8504783 L35.5549249,24.8504783 C35.9661997,24.8504783 36.2993103,24.5139722 36.2993103,24.0993289 C36.2971188,23.7646656 36.0732188,23.4738624 35.752892,23.3883538 C35.8007401,23.1259306 35.8325171,22.8624017 35.8737907,22.5962928 L36.2993103,22.5962928 C36.7105851,22.5962928 37.0440611,22.2597867 37.0440611,21.8447748 C37.0440611,21.4301315 36.7105851,21.0936254 36.2993103,21.0936254 L36.0819849,21.0936254 C36.2240682,19.8463782 36.2967536,18.5921282 36.2993103,17.3367724 C36.2982146,17.0994122 36.1860819,16.8767948 35.9965157,16.7360003 L32.4221506,14.0760172 L37.9078842,8.54154222 L42.1313038,4.05933986 C43.0035277,3.17919027 43.0035277,1.75244861 42.1313038,0.872299014 C41.2367994,-0.00158485899 39.8126782,0.0124208716 38.9353407,0.903627622 L38.9353407,0.903627622 Z" id="Fill-1" fill="#F9FBF9" mask="url(#mask-2)"></path>
                        </g>
                        <g id="Group-6" transform="translate(0.000000, 52.163998)">
                            <mask id="mask-4" fill="white">
                                <use xlink:href="#path-3"></use>
                            </mask>
                            <g id="Clip-5"></g>
                            <path d="M9.13612729,6.28908578 C9.15222361,5.38467977 9.05850727,4.60791474 8.85462057,3.95879069 C8.65109156,3.30966664 8.34704999,2.77952357 7.94893438,2.36836147 C7.55081877,1.95719937 7.05648294,1.65598171 6.46986156,1.46508503 C5.88288248,1.27494138 5.21756798,1.18005782 4.47248728,1.18154626 C4.12230293,1.18194043 3.77247628,1.18231695 3.42229193,1.18269347 C3.47272706,4.16211261 3.42157653,7.13701348 3.40617325,10.1201978 C3.40548022,10.2361666 3.42193423,10.3355685 3.45555765,10.4165207 C3.48846568,10.4978495 3.55571252,10.5618582 3.65694048,10.608547 C3.75745305,10.6548592 3.89766987,10.6898757 4.07759094,10.7132201 C4.25679662,10.736941 4.49859909,10.7486132 4.80156757,10.7489939 C6.26132481,10.7504958 7.33691658,10.3498763 8.03835837,9.54713125 C8.73944246,8.7443862 9.11073088,7.65849655 9.13612729,6.28908578 M11.480109,5.95736984 C11.4665165,6.64188696 11.3359575,7.32113278 11.0955858,7.99510728 C10.854141,8.66945831 10.4932258,9.27754145 10.0142709,9.81898019 C9.53531599,10.3604189 8.93224059,10.7971845 8.20182543,11.1285239 C7.47141026,11.4594868 6.60757451,11.6244035 5.60852967,11.6225209 C4.45746405,11.6206383 3.30675613,11.6183792 2.15569051,11.6164965 C1.8638106,11.6157435 1.52435713,11.624027 1.1369724,11.6409705 C0.749587667,11.657914 0.381518518,11.6771166 0.0338380384,11.6997079 C0.0109454966,11.6533957 -0.000143078385,11.6010591 -0.000143078385,11.5430747 L-0.000143078385,11.4041381 C-0.000143078385,11.2768736 0.0195301998,11.1929092 0.059234452,11.1522448 C0.0982233123,11.1123335 0.145796876,11.085977 0.201955143,11.0743048 C0.527816168,11.0174499 0.789291919,10.9391333 0.985667005,10.8404846 C1.18239979,10.7425888 1.28112387,10.5712713 1.28148157,10.328038 C1.2872047,7.4239233 1.30616259,4.52319728 1.29042397,1.62096516 C1.28935088,1.38902757 1.20636542,1.22448742 1.04218297,1.12583864 C0.877642823,1.02756638 0.597924577,0.944355003 0.20302823,0.875451464 C0.112531151,0.85286014 0.0563728843,0.814831411 0.0338380384,0.762871365 C0.0109454966,0.71091132 -0.000143078385,0.638619082 -0.000143078385,0.545618131 L-0.000143078385,0.406681487 C-0.000143078385,0.348697089 0.0109454966,0.29071269 0.0338380384,0.232728291 C0.26955968,0.25607266 0.480242604,0.270003976 0.665529115,0.274898763 C0.851173321,0.280546594 1.02215199,0.28883008 1.17953822,0.300125742 C1.33692444,0.311421404 1.49431067,0.317069235 1.65169689,0.316692713 C1.80908312,0.316316191 1.97219248,0.316316191 2.14066728,0.315939669 C3.28100202,0.313680536 4.42169446,0.311421404 5.5620292,0.309538794 C6.51671973,0.307656183 7.36338608,0.457135445 8.10345904,0.757976579 C8.8428166,1.05844119 9.47021532,1.46433198 9.97599742,1.97414286 C10.4824949,2.48433027 10.8666604,3.08111775 11.1216976,3.76525835 C11.3778079,4.44939895 11.4958476,5.18022829 11.480109,5.95736984" id="Fill-4" fill="#F9FBF9" mask="url(#mask-4)"></path>
                        </g>
                        <path d="M20.6399031,53.8635434 C20.7392319,55.2199833 20.7339856,56.5706062 20.6965625,57.9226834 C21.4726557,57.9226834 22.248749,57.9223199 23.0241427,57.9223199 C23.2329429,57.9223199 23.3787883,57.8350656 23.4606296,57.6609207 C23.5421211,57.4871393 23.6159182,57.2039266 23.6764248,56.8105554 C23.6883163,56.7207562 23.7218922,56.6618596 23.7775023,56.633502 C23.8324129,56.6058715 23.9041115,56.5916927 23.9922482,56.5916927 C24.0254744,56.5916927 24.077587,56.5946011 24.1492856,56.599691 C24.2206344,56.6055079 24.2730968,56.6142333 24.3059732,56.6251401 C24.281141,56.8836308 24.2570083,57.1839308 24.2314766,57.5260402 C24.2059449,57.8692402 24.187758,58.1579063 24.1790143,58.3934928 C24.1716695,58.5956318 24.1674725,58.8344902 24.1671228,59.1097047 C24.1664233,59.3852826 24.1748173,59.6972166 24.1930042,60.04587 C24.1594283,60.0687742 24.1066162,60.0825895 24.0352674,60.0880429 C23.9632191,60.0938598 23.9114562,60.0967683 23.8785798,60.0967683 C23.6809715,60.0967683 23.579894,60.0178759 23.5756971,59.8597276 C23.5281312,59.4325454 23.4658758,59.1431521 23.3896305,58.9911843 C23.3133852,58.8399436 23.1811801,58.7643233 22.9947638,58.7643233 L20.6696318,58.7643233 C20.6252137,60.0218751 20.5657563,61.2812446 20.5486186,62.5482489 C20.5451211,62.7856532 20.6867695,62.9445286 20.9714653,63.0241481 C21.256161,63.1037676 21.7388148,63.1437591 22.4183773,63.1448498 C22.6485122,63.1448498 22.8786471,63.1452134 23.1091318,63.1455769 C23.4378959,63.1459405 23.7145474,63.1012227 23.9394361,63.0106964 C24.1643248,62.9205337 24.364731,62.7932879 24.5417041,62.6285955 C24.7186771,62.4646303 24.875015,62.2723074 25.0114171,62.0512633 C25.1474695,61.8313099 25.2856204,61.5851802 25.4262195,61.3143285 C25.4615442,61.2357997 25.5395382,61.1958082 25.6602017,61.1961717 C25.7147625,61.1961717 25.7798159,61.213259 25.8553617,61.24707 C25.9309075,61.280881 26.0064533,61.3146921 26.0819991,61.3488666 C26.0571669,61.4393929 26.0298865,61.5237387 26.0005076,61.6029946 C25.9704291,61.6822506 25.9438482,61.7615065 25.9200653,61.8403989 C25.8616572,61.9650997 25.8151405,62.1003438 25.7794661,62.2479489 C25.7441415,62.3951904 25.7098661,62.5137108 25.6759404,62.6042371 C25.6528569,62.7176676 25.6269755,62.8456405 25.6000448,62.9874286 C25.5724147,63.1292167 25.5451342,63.2655515 25.5192528,63.3960693 C25.4930216,63.5269507 25.4674899,63.6432896 25.4419582,63.7461769 C25.4167763,63.8483371 25.3989391,63.9166863 25.3891461,63.9508609 C25.347526,64.0421142 25.261138,64.0875592 25.1296323,64.0871978 C25.0414955,64.0871978 24.9152361,64.0810151 24.7501545,64.0693812 C24.5854227,64.0577473 24.4067009,64.0490219 24.2146887,64.0432049 C24.0223267,64.0366609 23.8271667,64.0279354 23.6295584,64.0163015 C23.4316004,64.0046676 23.2612726,63.9984871 23.118575,63.9981236 C21.8727687,63.9959422 20.6269624,63.9937609 19.3815059,63.9915795 C19.0628844,63.9908524 18.6984459,63.9992142 18.2867912,64.0152109 C17.8754863,64.0319346 17.5054517,64.0508397 17.1763378,64.0726532 C17.1536041,64.0272083 17.1420624,63.9679481 17.1413629,63.8941456 C17.1403137,63.8207066 17.1399639,63.7665363 17.1395994,63.7327252 C17.1385649,63.562943 17.1934755,63.4724168 17.3032967,63.4607829 C17.7198479,63.3826176 18.0185336,63.2979083 18.1997037,63.207382 C18.3812235,63.1172193 18.4721582,62.9587074 18.4746065,62.7325735 C18.5053844,59.9000827 18.7383173,57.1032207 18.5851272,54.2878171 C18.5788317,54.1754773 18.5567975,54.0831332 18.5193743,54.0096942 C18.4816014,53.9366188 18.4137501,53.8748137 18.3168696,53.8246425 C18.2199891,53.7744713 18.0954784,53.72939 17.9440371,53.6901256 C17.792246,53.6508612 17.5995342,53.6094154 17.3652023,53.5646976 C17.2522334,53.5308866 17.189978,53.4298171 17.1752886,53.2611255 C17.1707418,53.2047738 17.1654956,53.1513306 17.1609489,53.1004323 C17.1564021,53.0498976 17.1619981,52.9964543 17.1787861,52.9401026 C17.6537453,52.972823 18.073794,52.9946365 18.4375331,53.0055433 C18.8009224,53.0160866 19.1142976,53.0211764 19.3780084,53.0204493 C20.5038507,53.0186315 21.6293433,53.0164501 22.7551857,53.0142688 C23.2490314,53.0135416 23.6725776,52.9957272 24.0258241,52.9611891 C24.3780215,52.9270145 24.6207474,52.9095637 24.752253,52.9091982 C24.8732662,52.9088365 24.9673487,52.9593713 25.0341508,53.0611679 C25.0775197,53.1516942 25.1240363,53.3182044 25.1691539,53.5606984 C25.2139218,53.8039196 25.2719802,54.054412 25.3429792,54.3132663 C25.3880969,54.5055892 25.4356628,54.6906409 25.4874256,54.8709663 C25.538489,55.0509282 25.6119363,55.2701545 25.7049696,55.5286452 C25.6504087,55.5515494 25.5902519,55.5737265 25.5248488,55.5962672 C25.4590959,55.6191714 25.3929934,55.6297147 25.3268908,55.6297147 C25.2058776,55.6300782 25.1170413,55.579907 25.0600322,55.478474 C24.9218813,55.1865358 24.7833807,54.936407 24.6473283,54.7280875 C24.5109261,54.5204951 24.357736,54.35144 24.1898565,54.2220129 C24.0219769,54.0925858 23.8282159,53.9998781 23.609273,53.94389 C23.3906798,53.8879019 23.1322152,53.8599078 22.8352782,53.8602713 C22.1039529,53.861362 21.371928,53.8624527 20.6399031,53.8635434" id="Fill-7" fill="#F9FBF9"></path>
                        <path d="M35.5907789,53.8659699 C35.7115936,55.2247712 35.6898188,56.5741641 35.6311675,57.9242807 C36.4069806,57.9242807 37.1824424,57.9246426 37.9579043,57.9246426 C38.1665204,57.9246426 38.3136755,57.8377951 38.398316,57.6637382 C38.4822542,57.4900433 38.5602218,57.2067033 38.625546,56.8144422 C38.6385406,56.7246998 38.6726076,56.6657158 38.7288005,56.6374904 C38.784291,56.6096268 38.8559369,56.5955141 38.9444407,56.5955141 C38.9771028,56.5955141 39.0294324,56.5980472 39.1010784,56.603837 C39.1723731,56.609265 39.2247027,56.6179497 39.2573648,56.6291675 C39.2296196,56.8875388 39.2015232,57.1875245 39.1709683,57.5294865 C39.1407646,57.8714485 39.1179362,58.1602164 39.1059952,58.3957902 C39.0954591,58.5973487 39.0880838,58.8358175 39.0838693,59.1108345 C39.0796548,59.3862134 39.0842205,59.6974169 39.0993223,60.0458925 C39.0652554,60.06869 39.0122234,60.0828027 38.9405774,60.0875069 C38.8685803,60.0936586 38.8166019,60.0965535 38.7835885,60.0965535 C38.5858598,60.0965535 38.485415,60.0176671 38.4829566,59.8598941 C38.4397583,59.4332558 38.3818094,59.1441261 38.307705,58.9925048 C38.2332494,58.8408836 38.102601,58.7656158 37.9157596,58.7656158 C37.1410002,58.7652539 36.3658895,58.764892 35.5907789,58.764892 C35.526157,60.0202001 35.449243,61.2776794 35.4443261,62.5456527 C35.4436237,62.7833977 35.5883204,62.9422562 35.8752553,63.0222283 C36.1618391,63.1018385 36.646854,63.1423673 37.3288951,63.1434529 C37.5599884,63.1438148 37.7910816,63.1441767 38.0221749,63.1445385 C38.3519569,63.1449004 38.6287069,63.1000292 38.852776,63.0095631 C39.0768452,62.9190969 39.2759787,62.7917206 39.4512303,62.6274341 C39.6261307,62.4631476 39.7806611,62.2709975 39.9158752,62.0502602 C40.0507382,61.8302465 40.1880596,61.5841786 40.3285418,61.3138658 C40.3640135,61.2353412 40.4419812,61.1951743 40.5631471,61.1955361 C40.6179352,61.1955361 40.6832594,61.2129056 40.7587686,61.246559 C40.8342778,61.2805743 40.9104894,61.3142277 40.9859986,61.348243 C40.9614142,61.4387091 40.9340201,61.5230235 40.9048701,61.6022719 C40.8753688,61.6815202 40.8490284,61.7600448 40.8254976,61.8392931 C40.7678999,61.9641364 40.7222432,62.0994737 40.6881763,62.2463907 C40.6541093,62.3936696 40.621096,62.512723 40.5887851,62.6031892 C40.5670103,62.7168146 40.5434796,62.8445528 40.518544,62.9860419 C40.4936084,63.1282546 40.4697264,63.2646776 40.4465468,63.3953107 C40.4237185,63.5263056 40.4008901,63.6431879 40.3787642,63.7455955 C40.356287,63.8480032 40.340834,63.9163956 40.3320538,63.9504109 C40.2934212,64.0416007 40.2080783,64.0875575 40.076025,64.0871978 C39.9875212,64.0871978 39.860736,64.0810439 39.6946157,64.0694643 C39.5284955,64.0575228 39.3486783,64.048838 39.1555152,64.0430482 C38.9623522,64.0365346 38.7663795,64.027488 38.5672459,64.0162702 C38.3681124,64.0043287 38.1967241,63.998177 38.0537834,63.998177 C36.8031404,63.9956439 35.5521462,63.9934727 34.3015033,63.9913015 C33.981555,63.9905778 33.6155988,63.9989007 33.2032835,64.0148227 C32.7902658,64.0314685 32.4193927,64.0506473 32.0896107,64.0727211 C32.0653775,64.0271261 32.0520317,63.9674185 32.0495732,63.8935981 C32.0467636,63.8197778 32.0450076,63.7654981 32.043954,63.7314828 C32.0386859,63.5610446 32.0920691,63.4705785 32.2019965,63.4589988 C32.6185262,63.3804742 32.917051,63.2957979 33.0968682,63.2053318 C33.2773879,63.1148656 33.3662429,62.9560071 33.3662429,62.7294799 C33.3672965,59.8939094 33.7300918,57.1089999 33.5386848,54.2907989 C33.5309583,54.178259 33.5074275,54.0856217 33.4684437,54.0121632 C33.4294599,53.9390665 33.3599212,53.8771877 33.2619348,53.8268885 C33.1635973,53.7762275 33.0378657,53.7317182 32.8850913,53.6922749 C32.7323168,53.6528317 32.5381002,53.6108554 32.3017388,53.5659842 C32.187597,53.5326927 32.122624,53.4310087 32.1022541,53.262018 C32.0955812,53.205929 32.0892595,53.1520112 32.0825866,53.1013501 C32.0762649,53.0503272 32.0797769,52.9971332 32.0941764,52.9399586 C32.5728695,52.9728882 32.9950186,52.994962 33.3606236,53.0058179 C33.7258774,53.016312 34.0405575,53.0213781 34.3053665,53.0210162 C35.435546,53.018845 36.5657255,53.0166738 37.6959049,53.0148645 C38.1918072,53.0141408 38.6167659,52.9964094 38.9704299,52.9616704 C39.3233915,52.9269314 39.5667769,52.9095619 39.6988302,52.9091982 C39.8199961,52.9088382 39.915524,52.9598611 39.9847115,53.0619069 C40.0300171,53.152373 40.079537,53.3195545 40.127301,53.5627274 C40.1750649,53.8062623 40.2351211,54.0577581 40.3071182,54.3168531 C40.352775,54.5090032 40.4005389,54.6950016 40.4518149,54.8748482 C40.5030909,55.0550568 40.5754393,55.2747086 40.6671039,55.5330798 C40.6119647,55.5558773 40.5519085,55.5783129 40.4862331,55.6007485 C40.4202064,55.6231841 40.3541798,55.6344019 40.2881531,55.6344019 C40.166636,55.6344019 40.0784834,55.5841027 40.0219393,55.4831425 C39.8856716,55.190756 39.7472966,54.9403457 39.6110288,54.7322736 C39.4747611,54.5238396 39.3202306,54.3548489 39.151652,54.2253014 C38.9827221,54.0957539 38.7874518,54.0031166 38.5675971,53.9466657 C38.3477425,53.8905767 38.088904,53.8623513 37.7910816,53.8627131 C37.0577645,53.8637987 36.3244473,53.8648843 35.5907789,53.8659699" id="Fill-9" fill="#F9FBF9"></path>
                        <path d="M50.4157756,58.205837 C50.7754085,58.205837 51.1027191,58.1724141 51.3969642,58.1059276 C51.6908378,58.0387223 51.9475592,57.924078 52.1660139,57.762354 C52.3840971,57.6002707 52.5557401,57.3849981 52.6790852,57.1165364 C52.8013159,56.8480747 52.8715334,56.5062981 52.8800784,56.0919254 C52.8941963,55.3972312 52.7050918,54.8462916 52.3350562,54.441263 C51.9642777,54.035875 51.325632,53.8335403 50.4410391,53.8346142 C50.2664239,53.8349779 50.0914372,53.8353373 49.9168221,53.8353373 C50.0457401,55.301275 49.9822099,56.753556 49.8934162,58.205837 L50.4157756,58.205837 Z M50.5892762,59.0442858 C50.3396137,59.0442858 50.0903227,59.0439264 49.8406602,59.0439264 C49.7667274,60.2119327 49.6972528,61.3820953 49.7195441,62.5616019 C49.7247454,62.821079 49.8458615,63.0050849 50.0776909,63.1129009 C50.3091489,63.2207168 50.7011042,63.3091259 51.2524423,63.3781281 C51.4170263,63.4014882 51.505077,63.5143356 51.5214239,63.7188266 C51.5288543,63.8101107 51.5262537,63.9121765 51.5139935,64.0257427 C51.1733082,64.0023825 50.7490305,63.9822569 50.2404174,63.9635688 C49.7318043,63.9459589 49.1800947,63.9362554 48.5856602,63.9355366 C48.1658408,63.9348179 47.7612537,63.9427244 47.3722706,63.9588968 C46.982916,63.9757879 46.6203109,63.994476 46.2840838,64.016758 C46.2569627,63.9714753 46.2409873,63.920083 46.2369006,63.8633 C46.2324423,63.8068763 46.2290986,63.7612342 46.2268695,63.7270925 C46.2134947,63.5344613 46.2725666,63.4270047 46.3992555,63.4043633 C46.6414876,63.3597994 46.836908,63.3177512 46.9866312,63.2778593 C47.1356113,63.2386861 47.25004,63.1937628 47.3295456,63.1427299 C47.4090512,63.091697 47.4618073,63.0298826 47.4885569,62.9565677 C47.5149349,62.8832529 47.5268236,62.7901717 47.5245945,62.6766056 C47.4662656,59.8489523 47.9332682,57.0773633 47.7471359,54.2601322 C47.732275,54.0355156 47.6330788,53.8716353 47.4547484,53.7706477 C47.275675,53.6696601 46.9439062,53.5913138 46.4601851,53.5356089 C46.3992555,53.5129675 46.3491001,53.4795446 46.3089758,53.4342619 C46.2684799,53.389698 46.2417304,53.3102735 46.2268695,53.1970668 C46.2209251,53.1521435 46.2142378,53.10147 46.2060643,53.0450463 C46.1982623,52.9882632 46.2027206,52.9426211 46.2212967,52.9091982 C46.5512078,52.9311207 46.9301599,52.9505276 47.3585243,52.9667 C47.7865172,52.9828724 48.169556,52.9904195 48.5076406,52.9900601 C49.3881468,52.9882632 50.2686531,52.987185 51.1491593,52.9857475 C51.7669997,52.9846693 52.3317125,53.0576248 52.8395826,53.2038951 C53.3478241,53.3501654 53.7880772,53.558969 54.1543975,53.8299465 C54.5203463,54.1005645 54.8023312,54.4218561 54.9940364,54.7934618 C55.1857415,55.1650675 55.2778789,55.5754869 55.2689624,56.0240013 C55.2570737,56.6184267 55.0408481,57.1585846 54.6358896,57.645194 C54.2305595,58.1321628 53.6870234,58.4976589 53.010111,58.7434793 C53.8382327,60.0246923 54.6644967,61.3080616 55.615592,62.6036501 C55.8336752,62.8979877 56.0866814,63.1024786 56.3675518,63.2160448 C56.6476791,63.3299703 56.9077442,63.4158637 57.1451465,63.4726468 C57.2038469,63.4845065 57.2528878,63.510023 57.2911545,63.5495555 C57.3294212,63.5894474 57.3528271,63.6602466 57.3624866,63.7630311 C57.3665734,63.8083138 57.3717747,63.8593467 57.3780905,63.9164892 C57.3840349,63.9732722 57.3784621,64.0300553 57.3617436,64.0871978 C57.2320825,64.075338 57.0504085,64.0667127 56.8167214,64.0606032 C56.5826628,64.0541342 56.3396876,64.0455089 56.087796,64.0336492 C55.8355328,64.0221488 55.5843842,64.0128048 55.3328641,64.0070546 C55.0817155,64.0005856 54.8744064,63.9977105 54.7113084,63.9973511 C54.4664757,63.9969917 54.2104973,63.8970823 53.9485746,63.6972634 C53.6873949,63.4985226 53.4295589,63.2343735 53.1839831,62.9055348 C52.2299156,61.6088682 51.4069953,60.3247801 50.5892762,59.0442858 L50.5892762,59.0442858 Z" id="Fill-11" fill="#F9FBF9"></path>
                        <path d="M64.0313275,54.2985172 C64.0269478,54.1970522 64.0097657,54.1095701 63.9794443,54.0360707 C63.949123,53.9622128 63.889491,53.8976768 63.8012222,53.84067 C63.7136272,53.7840217 63.5940264,53.7366953 63.4434304,53.696898 C63.2924975,53.6571008 63.0991147,53.6155109 62.863282,53.5703357 C62.754799,53.536275 62.6938194,53.4344515 62.6773111,53.2637896 C62.6719207,53.2074999 62.6665302,53.1533613 62.6611398,53.102091 C62.6554124,53.0511793 62.6597921,52.9970407 62.6746159,52.9400339 C63.133142,52.9733775 63.5377635,52.9952481 63.8878065,53.0063626 C64.2378496,53.0167601 64.5346618,53.0217795 64.7779063,53.021421 C65.8617259,53.0196283 66.9452085,53.0174771 68.029028,53.0156845 C68.5155171,53.0146089 68.9288981,52.9966822 69.2691709,52.9615459 C69.6094438,52.9271267 69.8371907,52.9095586 69.9537595,52.9091982 C70.0699913,52.9088415 70.1599446,52.9601118 70.2222718,53.0630109 C70.2627002,53.1544369 70.3041394,53.321872 70.3415357,53.5667504 C70.378932,53.8116287 70.4274462,54.0643948 70.487752,54.3246901 C70.5251483,54.5175811 70.5652399,54.7043771 70.6083635,54.8850779 C70.6514872,55.0657788 70.7144882,55.2862769 70.7939975,55.5454966 C70.7512108,55.5680842 70.6959585,55.5906718 70.6272302,55.6132594 C70.5581649,55.6362055 70.4924686,55.6473201 70.4291307,55.6473201 C70.3132358,55.6473201 70.235411,55.5967669 70.1949826,55.4953019 C70.0726865,55.20238 69.9480321,54.9506896 69.8243884,54.741306 C69.7004078,54.5326395 69.5585713,54.3626947 69.4009003,54.232547 C69.2435662,54.1023994 69.0599537,54.0088222 68.8514102,53.9525324 C68.6428668,53.8966012 68.3901889,53.868277 68.0950612,53.8686356 C67.3980072,53.8697112 66.7016271,53.8707868 66.0045731,53.8718624 C66.0884621,55.3056377 66.015354,56.7243546 65.9318019,58.1412788 C66.6574927,58.1412788 67.3828465,58.1416374 68.1088742,58.1419959 C68.2874332,58.1419959 68.4218579,58.0494943 68.5114743,57.864491 C68.6007538,57.6794877 68.6829583,57.4019828 68.754045,57.0316178 C68.792452,56.8856947 68.8955446,56.8125538 69.0639965,56.8125538 C69.0956655,56.8125538 69.1455272,56.8157806 69.2135818,56.8208001 C69.2812995,56.8268952 69.3311612,56.8347829 69.3621564,56.8458974 C69.3291398,57.1047586 69.2951125,57.4048511 69.2597376,57.746892 C69.2240258,58.0892915 69.1990949,58.3775524 69.1852819,58.6131089 C69.1734902,58.8153217 69.1643938,59.0537465 69.160351,59.3283831 C69.1563082,59.6033783 69.1620355,59.9145853 69.1798914,60.2623628 C69.1478856,60.2849504 69.0997083,60.2989332 69.0360335,60.3043112 C68.9730325,60.3104063 68.925529,60.3125575 68.8938601,60.3125575 C68.7146273,60.3125575 68.6125454,60.2340387 68.5872776,60.0766425 C68.5606622,59.7173919 68.512485,59.4456236 68.4380292,59.2606203 C68.3639104,59.0752585 68.2379084,58.9827569 68.0593494,58.9823983 C67.3336586,58.9820398 66.6076309,58.9816813 65.8819401,58.9813227 C65.8095058,60.2358313 65.7515583,61.4914155 65.8101796,62.7573972 C65.8155701,62.8703352 65.8580199,62.9635539 65.9361816,63.0374118 C66.0143433,63.1112697 66.1187835,63.1736545 66.2491652,63.2245663 C66.379547,63.2758365 66.5304799,63.3159923 66.7016271,63.344675 C66.8727742,63.3733576 67.0550391,63.4045501 67.2477481,63.4389693 C67.3757716,63.4504423 67.4468583,63.5476049 67.4647142,63.7290228 C67.4680832,63.762725 67.4714522,63.8200903 67.4748213,63.8993262 C67.4778534,63.9792792 67.4775165,64.0413055 67.4727999,64.0871978 C67.3245622,64.0868392 67.1763245,64.0836124 67.0277499,64.0775174 C66.8785015,64.0717808 66.7295901,64.062459 66.5803417,64.0513444 C66.302396,64.0280397 66.0076052,64.0133399 65.6949585,64.0068863 C65.3826487,64.0007912 65.0730341,63.9972059 64.7667885,63.9968473 C64.6182139,63.9964888 64.4578477,63.9989985 64.2836685,64.004018 C64.1098261,64.009396 63.9285719,64.0172837 63.7395688,64.0287568 C63.5502289,64.0395128 63.3635842,64.0474006 63.1792978,64.0534956 C62.9950114,64.0588736 62.8242012,64.0671199 62.6665302,64.0778759 C62.6402517,64.0319836 62.6230696,63.9724671 62.6156577,63.8986092 C62.607909,63.8247513 62.6028554,63.7709713 62.5998233,63.7369106 C62.5839888,63.5669657 62.6304815,63.4766153 62.7352586,63.4647837 C63.0765421,63.3747918 63.3447176,63.2876681 63.5397849,63.2030542 C63.7345153,63.1187989 63.8251424,62.9628368 63.8153722,62.7369607 C63.6950975,59.9066976 64.1472224,57.1294974 64.0313275,54.2985172" id="Fill-13" fill="#F9FBF9"></path>
                        <path d="M79.8889173,62.741774 C79.8961726,62.8548168 79.9106832,62.9481844 79.9331401,63.0218768 C79.9545605,63.0952116 80.0032747,63.1606762 80.0789372,63.2171976 C80.1545996,63.2740767 80.2613563,63.3223703 80.4009345,63.3620784 C80.5405128,63.4025019 80.7256958,63.4393481 80.9568291,63.4736903 C81.0673861,63.496585 81.1313019,63.5931722 81.1513404,63.7630941 C81.1554863,63.7974362 81.1589412,63.8485916 81.1627416,63.9165604 C81.1655055,63.9852446 81.16516,64.0414083 81.1610141,64.0871978 C80.810341,64.0635876 80.4365201,64.0435547 80.0385148,64.0253104 C79.6398185,64.0074239 79.2891454,63.9984806 78.98615,63.9981229 C78.671408,63.9974075 78.3200439,64.0052775 77.9320578,64.0213754 C77.5440717,64.0381887 77.1775061,64.0571484 76.8337428,64.07897 C76.8057581,64.0335382 76.787447,63.9770168 76.7791553,63.9086903 C76.7708635,63.8403638 76.7642992,63.7892084 76.7604988,63.7555818 C76.7397693,63.5738547 76.7850286,63.477983 76.8917852,63.4661779 C77.1163542,63.4332667 77.2939364,63.3967782 77.4259139,63.3570702 C77.5578914,63.3177198 77.6532468,63.269784 77.7137077,63.2129048 C77.7738231,63.1567412 77.811827,63.091992 77.8280651,63.0179418 C77.8443032,62.9446071 77.8484491,62.8515972 77.8415392,62.7381967 C77.6705213,59.9074766 78.1113675,57.122546 78.0522886,54.281094 C78.0498702,54.1673357 78.036396,54.0739681 78.0122117,53.9999179 C77.9880273,53.9262255 77.9424225,53.8611186 77.8750518,53.8042394 C77.8080266,53.7473603 77.7057614,53.6994245 77.5679106,53.6593587 C77.4307508,53.6200083 77.2472952,53.5828044 77.0182349,53.5495354 C76.9080233,53.5155511 76.8485989,53.4189639 76.8375432,53.2590584 C76.8351248,53.225074 76.8313244,53.1739186 76.826142,53.1055921 C76.8206142,53.0372656 76.8257965,52.9739473 76.8427256,52.9170682 C77.1913257,52.9396052 77.5620372,52.9585649 77.9534782,52.9750205 C78.3456102,52.9911184 78.6983562,52.9993462 79.0130983,52.9989885 C79.3164391,52.998273 79.6653848,52.9886143 80.0599352,52.9714432 C80.4544856,52.9535567 80.8238152,52.9328084 81.1693059,52.9091982 C81.1845075,52.966435 81.1972906,53.0293955 81.2076554,53.0973643 C81.2176746,53.1660485 81.2235479,53.2175617 81.2256209,53.2519038 C81.2352946,53.4118093 81.1851985,53.5087542 81.0791328,53.5430963 C80.8531819,53.5774384 80.6735267,53.6150001 80.5398218,53.6550659 C80.4061169,53.6951317 80.3052336,53.743783 80.2371719,53.8006621 C80.1691102,53.8575413 80.1279969,53.9233636 80.1138317,53.9974138 C80.0996666,54.0711063 80.0941388,54.1644739 80.0962117,54.2782321 C80.1459624,57.1221882 79.712717,59.909623 79.8889173,62.741774" id="Fill-15" fill="#F9FBF9"></path>
                        <path d="M90.7506474,53.1912993 C90.7759147,54.6503069 90.6965541,56.0952783 90.6225317,57.5364562 L92.9787936,57.5364562 C93.1901846,57.5364562 93.3396529,57.4435137 93.4271987,57.2576287 C93.5143886,57.0717437 93.5958844,56.7697754 93.6716862,56.349827 C93.6866331,56.2538496 93.7232884,56.1908764 93.7805846,56.1605278 C93.8375249,56.1305586 93.9104797,56.1157636 93.9998049,56.1153843 C94.0329014,56.1153843 94.0855712,56.1187985 94.1578143,56.1241095 C94.2297014,56.1301792 94.2820154,56.1392838 94.3154678,56.1514232 C94.2805919,56.4275952 94.2457159,56.7485314 94.2115517,57.1138523 C94.1766758,57.479932 94.1535438,57.78797 94.1417998,58.0391044 C94.1318353,58.2545793 94.1257853,58.5095073 94.1254295,58.8019917 C94.1250736,59.0956141 94.1361058,59.4275516 94.1610172,59.7985629 C94.1264971,59.8224624 94.0731155,59.8376367 94.0008725,59.8429477 C93.9279177,59.8493968 93.874892,59.8524316 93.8417955,59.8524316 C93.640369,59.8524316 93.5357412,59.7682143 93.5296913,59.6005385 C93.4752421,59.1456892 93.4126077,58.8376512 93.3357383,58.6760451 C93.2588689,58.5144389 93.1257708,58.4336359 92.9360884,58.4340152 C92.149956,58.4336359 91.3641794,58.4332565 90.5784029,58.4328771 C90.5164803,59.7720079 90.4791132,61.1092419 90.554915,62.4536836 C90.5691501,62.7059561 90.7282271,62.8740114 91.0250286,62.9589874 C91.3221859,63.0439634 91.8172109,63.0864514 92.5108153,63.0879688 C92.7453383,63.0883482 92.980573,63.0887275 93.215096,63.0891069 C93.5503322,63.0898656 93.8282721,63.0420666 94.0503394,62.9464686 C94.2720508,62.8508706 94.4663597,62.7154401 94.6346895,62.5413151 C94.8033753,62.3671902 94.9496407,62.1630961 95.0749094,61.929412 C95.2008899,61.695728 95.3282939,61.434351 95.4592567,61.1475569 C95.4919973,61.063719 95.5699344,61.0216104 95.6930679,61.0216104 C95.7489406,61.0219897 95.8158455,61.0398195 95.8944943,61.0758584 C95.973499,61.1122767 96.0517919,61.1483157 96.1307967,61.1839752 C96.109444,61.2799526 96.0856003,61.3702396 96.0599771,61.4540775 C96.0339981,61.5382948 96.0101543,61.6221327 95.9905811,61.7059707 C95.9382672,61.837987 95.8991207,61.9817633 95.8724299,62.1380585 C95.8453833,62.2939743 95.8186925,62.4199208 95.7909341,62.5162776 C95.7752755,62.6365338 95.7589051,62.7719643 95.7421789,62.9218104 C95.7258086,63.0724152 95.71015,63.2169502 95.6952031,63.3550362 C95.6802563,63.4935016 95.6653095,63.617172 95.649295,63.7260475 C95.6336364,63.8345437 95.6222483,63.9070009 95.6158426,63.9426605 C95.5831019,64.0393965 95.5005384,64.0875749 95.3663727,64.0871978 C95.2763359,64.0871978 95.1471525,64.0807465 94.9784668,64.068607 C94.8090693,64.0560883 94.6265044,64.046225 94.4300602,64.0405346 C94.2336161,64.0337062 94.0346808,64.0246016 93.831475,64.0117035 C93.628981,63.9991847 93.455313,63.993115 93.3097593,63.993115 C92.0417693,63.9904595 90.7737794,63.9881833 89.5057895,63.9855278 C89.1815855,63.9847691 88.8114733,63.9934943 88.3950972,64.0105654 C87.9783652,64.0280158 87.6039825,64.0481218 87.2723051,64.0720213 C87.2434791,64.0234635 87.2239058,63.9604903 87.2139413,63.8819633 C87.2043326,63.8034364 87.1979268,63.7461535 87.1933004,63.7104939 C87.1723037,63.5295405 87.2189235,63.4335632 87.3296013,63.4214237 C87.7456216,63.3383445 88.0413554,63.2488162 88.2171587,63.1524595 C88.3933178,63.0564822 88.470899,62.8884269 88.4552404,62.6482939 C88.2609315,59.640371 88.6673431,56.6730393 88.6499052,53.6480453 C88.6488375,53.5274098 88.6310437,53.4276388 88.5961677,53.3491119 C88.5616477,53.270585 88.4961663,53.2038181 88.4004354,53.1499494 C88.3043485,53.0957013 88.1801475,53.047523 88.0288997,53.0054143 C87.8769402,52.9629263 87.6833431,52.9177828 87.4473966,52.8696045 C87.3342277,52.8339449 87.2747962,52.72469 87.2666111,52.5425986 C87.2637641,52.4826602 87.2605612,52.4246185 87.2577141,52.3699911 C87.2548671,52.3149843 87.2619847,52.257322 87.2808462,52.1966249 C87.7634154,52.2322844 88.1894003,52.2558046 88.5584448,52.2671853 C88.9278451,52.278566 89.2463551,52.283877 89.5143305,52.2834976 L92.9488999,52.2770486 C93.4510425,52.2762899 93.8834331,52.257322 94.2442924,52.2197656 C94.6058635,52.182968 94.8535539,52.1639982 94.9877196,52.1639982 C95.1104971,52.1636208 95.2023134,52.2182482 95.2624566,52.3278824 C95.2998237,52.4246185 95.3339879,52.6040544 95.3621022,52.8654315 C95.3891489,53.1268086 95.4300747,53.3961522 95.4855916,53.6738416 C95.5179764,53.8798326 95.5549876,54.0793744 95.5962693,54.2724672 C95.6375511,54.4651807 95.6987619,54.7007614 95.7799019,54.9773128 C95.7236733,55.0015917 95.6613948,55.0258705 95.5937782,55.04977 C95.5261615,55.0744282 95.4589008,55.085809 95.3923518,55.0861883 C95.2695742,55.0861883 95.1823843,55.032699 95.1300704,54.9238235 C95.0055134,54.6108538 94.8798888,54.3426483 94.754976,54.1192069 C94.6293514,53.8961449 94.4852212,53.7148122 94.323653,53.5763468 C94.1620848,53.4371228 93.9720465,53.3377312 93.753538,53.2774134 C93.5357412,53.2170956 93.2763068,53.1871264 92.9752348,53.1875058 C92.2335871,53.1890232 91.4922952,53.1901613 90.7506474,53.1912993" id="Fill-17" fill="#F9FBF9"></path>
                        <path d="M104.820085,62.4537221 C104.833231,62.706103 104.999737,62.874483 105.315953,62.959619 C105.632534,63.0443766 106.146658,63.0871338 106.859056,63.0882689 C107.077413,63.0886473 107.29577,63.0890257 107.514127,63.0894041 C107.801496,63.0897824 108.049065,63.0568632 108.257928,62.9910247 C108.466061,62.9255646 108.646442,62.8143203 108.799438,62.6580484 C108.952069,62.502155 109.089364,62.3008557 109.213148,62.0541505 C109.336567,61.8078238 109.458526,61.5104154 109.580484,61.1619254 C109.613712,61.065438 109.699521,61.0173835 109.837911,61.0177619 C109.895604,61.0177619 109.965347,61.0359242 110.046409,61.0722489 C110.127107,61.1085736 110.208534,61.1441415 110.289596,61.1804662 C110.202692,61.5656592 110.129663,61.9830147 110.074891,62.4340462 C110.019389,62.8858345 109.981414,63.3281632 109.9606,63.7621675 C109.961331,63.9070879 109.932484,63.9971428 109.872965,64.0330891 C109.813082,64.0697922 109.749181,64.0871978 109.680169,64.0871978 C109.588517,64.0868194 109.458526,64.0807653 109.291289,64.068657 C109.124052,64.055792 108.942575,64.0463325 108.747223,64.0402784 C108.55187,64.0338459 108.352501,64.0243863 108.15094,64.0118997 C107.949015,63.9997915 107.773745,63.9929806 107.624766,63.9929806 C106.323023,63.9907103 105.021646,63.98844 103.719903,63.9857914 C103.387255,63.985413 103.007504,63.993359 102.579554,64.0107646 C102.151239,64.0281702 101.767106,64.0482244 101.42606,64.0716841 C101.397214,64.0236296 101.378591,63.9604398 101.369828,63.8821146 C101.360699,63.8037895 101.354857,63.7466538 101.351205,63.7107075 C101.332218,63.5302193 101.380782,63.4341102 101.494707,63.422002 C101.922658,63.3387579 102.227554,63.2490813 102.409396,63.1529723 C102.591239,63.0572416 102.673031,62.8888615 102.658425,62.6485889 C102.474757,59.6389373 102.778193,56.6546374 102.803753,53.62531 C102.804483,53.5046061 102.793529,53.4047132 102.771255,53.3260097 C102.747886,53.2473062 102.702243,53.1776839 102.633596,53.1171428 C102.564583,53.05698 102.458326,53.0055201 102.315554,52.9631413 C102.171687,52.9215192 101.979985,52.8817891 101.73899,52.8462212 C101.623969,52.8102749 101.565911,52.7073549 101.562624,52.537083 C101.561894,52.5007583 101.560799,52.4462713 101.559338,52.3728651 C101.557147,52.3005941 101.567006,52.2336205 101.587819,52.172701 C101.955156,52.196539 102.345861,52.2169717 102.75884,52.2343773 C103.17182,52.2517828 103.538791,52.2604856 103.859388,52.2597289 C104.020417,52.2593505 104.203355,52.2563234 104.409297,52.2495125 C104.615604,52.2434584 104.830675,52.2366476 105.053778,52.2298367 C105.277247,52.2237826 105.500351,52.2139446 105.72382,52.2010796 C105.946924,52.1893498 106.150309,52.1761064 106.333247,52.1639982 C106.345662,52.2249177 106.355521,52.2918913 106.362824,52.3641623 C106.369397,52.4371901 106.373048,52.4920555 106.373413,52.5283802 C106.375604,52.6990305 106.318641,52.8015721 106.204351,52.8382752 C105.71177,52.9116813 105.383504,53.0062768 105.217363,53.1216834 C105.051587,53.2374683 104.967969,53.4160647 104.965778,53.6582292 C104.935471,56.6099883 104.66782,59.5216389 104.820085,62.4537221" id="Fill-19" fill="#F9FBF9"></path>
                        <path d="M124.228149,58.4719502 C124.231886,57.5304761 124.130229,56.721503 123.922429,56.0450308 C123.715003,55.3696911 123.409658,54.817415 123.006766,54.3897124 C122.604621,53.9612549 122.101941,53.6479335 121.498724,53.4493708 C120.895507,53.2511856 120.206704,53.1526592 119.432314,53.1541521 L118.341741,53.1564342 C118.324175,56.2651107 118.192618,59.3526475 118.274467,62.4481117 C118.277457,62.5689103 118.29876,62.6715891 118.336508,62.7557707 C118.37463,62.8395747 118.447135,62.9063914 118.555146,62.9547109 C118.662783,63.0030303 118.811532,63.0396474 119.001392,63.0638071 C119.190505,63.0883443 119.444648,63.1008017 119.763075,63.1011884 C121.295409,63.1034441 122.414014,62.6889539 123.135706,61.8569536 C123.857772,61.0253307 124.222543,59.8962412 124.228149,58.4719502 M126.683996,58.1254092 C126.683996,58.838876 126.565146,59.5459253 126.327447,60.2465572 C126.089375,60.9479441 125.721241,61.5783618 125.226035,62.1400753 C124.730829,62.7006563 124.102946,63.1528961 123.344253,63.4960396 C122.584813,63.8384281 121.687463,64.0090562 120.642112,64.0071687 C119.438668,64.0049037 118.235225,64.0026387 117.031781,64.0007513 C116.726435,64.0003738 116.371756,64.0086787 115.968117,64.025666 C115.564103,64.0434083 115.18102,64.0634155 114.819239,64.0871978 C114.79233,64.0385008 114.777007,63.9848965 114.772522,63.9241197 C114.768784,63.8640978 114.765794,63.8161559 114.763178,63.7799163 C114.754582,63.6474154 114.769158,63.5602139 114.808401,63.5179344 C114.84727,63.4760323 114.895482,63.4492301 114.954159,63.4367728 C115.291647,63.377506 115.561114,63.2963444 115.762559,63.1944206 C115.963632,63.0924968 116.058935,62.9150738 116.049592,62.6621518 C115.941207,59.6467166 116.091077,56.6418514 116.121724,53.6139589 C116.12434,53.3727392 116.039501,53.2002237 115.87057,53.0975449 C115.701266,52.9952436 115.411244,52.9080421 115.000877,52.8359404 C114.907442,52.8121582 114.848391,52.7725211 114.825219,52.7185393 C114.8013,52.6638024 114.790087,52.5886808 114.790087,52.4912869 C114.790087,52.4550473 114.789714,52.4067279 114.78934,52.3455736 C114.788966,52.2855518 114.800178,52.224775 114.82335,52.1639982 C115.069645,52.1881579 115.290152,52.2028802 115.483749,52.2081652 C115.676973,52.2142051 115.855995,52.2228875 116.02044,52.2345899 C116.184886,52.2466697 116.348584,52.2519547 116.51303,52.2515772 C116.677102,52.2511997 116.847527,52.2511997 117.023559,52.2511997 C118.213921,52.2489347 119.405031,52.2466697 120.595394,52.2444048 C121.592159,52.2425173 122.469701,52.398423 123.225778,52.7113669 C123.982228,53.0243107 124.614596,53.4463508 125.124004,53.9771097 C125.633786,54.5082461 126.02098,55.1296039 126.285962,55.8419381 C126.55057,56.5546499 126.683996,57.3156811 126.683996,58.1254092" id="Fill-21" fill="#F9FBF9"></path>
                        <mask id="mask-6" fill="white">
                            <use xlink:href="#path-5"></use>
                        </mask>
                        <g id="Clip-23"></g>
                    </g>
                </g>
            </g>
        </g>
    </g>
</svg>