<?xml version="1.0" encoding="UTF-8"?>
<svg width="14px" height="14px" viewBox="0 0 14 14" version="1.1" xmlns="http://www.w3.org/2000/svg" xmlns:xlink="http://www.w3.org/1999/xlink">
    <!-- Generator: Sketch 58 (84663) - https://sketch.com -->
    <title>Combined Shape</title>
    <desc>Created with Sketch.</desc>
    <g id="Page-1" stroke="none" stroke-width="1" fill="none" fill-rule="evenodd">
        <g id="Home" transform="translate(-1353.000000, -7803.000000)" fill="#2D4032" fill-rule="nonzero">
            <g id="Instagram" transform="translate(0.000000, 2952.000000)">
                <g id="Footer" transform="translate(0.000000, 4474.000000)">
                    <g id="Group-8" transform="translate(1215.000000, 358.000000)">
                        <path d="M141.725432,19 L147.774408,19 C149.7625,19 151.39178,20.5652226 151.494826,22.5279566 L151.5,22.7255118 L151.5,28.7744878 C151.5,30.7624252 149.934852,32.3917751 147.971978,32.4948258 L147.774408,32.5 L141.725432,32.5 C139.737495,32.5 138.10822,30.9348519 138.005174,28.9720502 L138,28.7744878 L138,22.7255118 C138,20.7375745 139.565148,19.1082249 141.527877,19.0051742 L141.725432,19 L147.774408,19 Z M147.774408,20.1977854 L141.725432,20.1977854 C140.387439,20.1977854 139.288913,21.2428645 139.203172,22.5595655 L139.197785,22.7255118 L139.197785,28.7744878 C139.197785,30.1125578 140.242791,31.2110861 141.559486,31.2968274 L141.725432,31.3022142 L147.774488,31.3022142 C149.112558,31.3022142 150.21116,30.2572088 150.296907,28.940443 L150.302294,28.7744878 L150.302294,22.7255118 C150.302294,21.3317688 149.168231,20.1977854 147.774408,20.1977854 Z M144.75,22.2715512 C146.668133,22.2715512 148.228608,23.832026 148.228608,25.7501595 C148.228608,27.6682132 146.668133,29.2286082 144.75,29.2286082 C142.831866,29.2286082 141.271391,27.6682132 141.271391,25.7501595 C141.271391,23.832026 142.831866,22.2715512 144.75,22.2715512 Z M144.75,23.4692567 C143.492325,23.4692567 142.469177,24.492405 142.469177,25.7500797 C142.469177,27.0076745 143.492405,28.0307429 144.75,28.0307429 C146.007595,28.0307429 147.030823,27.0076745 147.030823,25.7500797 C147.030823,24.492405 146.007674,23.4692567 144.75,23.4692567 Z M148.374498,21.255909 C148.60607,21.255909 148.832851,21.3493363 148.99575,21.5130336 C149.159447,21.6759324 149.252874,21.9027131 149.252874,22.134285 C149.252874,22.3650583 149.159447,22.591839 148.99575,22.7555363 C148.832052,22.9184351 148.60607,23.0126609 148.374498,23.0126609 C148.143725,23.0126609 147.916944,22.9184351 147.754046,22.7555363 C147.590348,22.591839 147.496122,22.3651381 147.496122,22.134285 C147.496122,21.9027131 147.590268,21.6759324 147.754046,21.5130336 C147.917024,21.3493363 148.143725,21.255909 148.374498,21.255909 Z" id="Combined-Shape"></path>
                    </g>
                </g>
            </g>
        </g>
    </g>
</svg>