<?xml version="1.0" encoding="UTF-8"?>
<svg width="212px" height="44px" viewBox="0 0 212 44" version="1.1" xmlns="http://www.w3.org/2000/svg" xmlns:xlink="http://www.w3.org/1999/xlink">
    <!-- Generator: Sketch 59.1 (86144) - https://sketch.com -->
    <title>Logo</title>
    <desc>Created with Sketch.</desc>
    <defs>
        <polygon id="path-1" points="0.0313656297 0.199081874 41.416336 0.199081874 41.416336 43.6887645 0.0313656297 43.6887645"></polygon>
        <polygon id="path-3" points="0.000173124858 0.0831634352 13.8927848 0.0831634352 13.8927848 13.9582094 0.000173124858 13.9582094"></polygon>
    </defs>
    <g id="Page-1" stroke="none" stroke-width="1" fill="none" fill-rule="evenodd">
        <g id="Our-Menu" transform="translate(-66.000000, -61.000000)">
            <g id="Logo" transform="translate(66.000000, 61.000000)">
                <g id="Group-3">
                    <mask id="mask-2" fill="white">
                        <use xlink:href="#path-1"></use>
                    </mask>
                    <g id="Clip-2"></g>
                    <path d="M39.7510457,2.91048423 L35.6631292,7.24889927 L28.228368,14.7455092 L30.0927154,14.7455092 C30.4904758,14.7455092 30.8132805,15.0712471 30.8132805,15.4729786 C30.8132805,15.8747101 30.4904758,16.200448 30.0927154,16.200448 L25.8541803,16.200448 L24.023068,17.5201682 C23.6963741,17.7406567 23.2561859,17.6660902 23.0189439,17.3503421 C22.9072174,17.19336 22.8623147,16.9978459 22.8948427,16.8076834 C22.9220672,16.6606911 22.9952551,16.5258292 23.1037995,16.423434 C23.1685019,16.3827614 23.2261329,16.3317422 23.2745713,16.2725171 L27.9299593,12.9184513 L27.9299593,6.01765993 C27.9299593,5.61592841 28.252764,5.29019051 28.650878,5.29019051 C29.0486384,5.29019051 29.3717967,5.61592841 29.3717967,6.01765993 L29.3717967,11.5352248 L34.3662534,6.49645541 L33.7065014,2.49590872 C33.674327,2.30610306 33.7188762,2.11130252 33.8306027,1.95503395 C33.9999602,1.71563621 34.2955404,1.60289451 34.5798065,1.66889835 C34.8637191,1.73561576 35.0797472,1.96787794 35.1281856,2.25793809 L35.61858,5.22846799 L38.7260612,1.88296489 C38.8607694,1.74096742 39.0467445,1.65997892 39.2412052,1.65819503 C39.4356658,1.65605436 39.6234088,1.73311831 39.7609455,1.871548 C39.8970679,2.00748025 39.9734379,2.19300458 39.972043,2.38602123 C39.972043,2.58403277 39.892118,2.77348165 39.7510457,2.91048423 L39.7510457,2.91048423 Z M27.2090407,21.2185243 L27.2090407,20.418629 L29.3717967,20.418629 C28.841803,21.1293299 28.0727995,21.6206126 27.2090407,21.8007853 L27.2090407,21.2185243 Z M33.47527,20.418629 L32.9756829,20.418629 C32.5775689,20.418629 32.2547643,20.7443669 32.2547643,21.1457417 C32.2547643,21.5474732 32.5775689,21.8732111 32.9756829,21.8732111 L33.2641918,21.8732111 C33.224239,22.1154631 33.1920646,22.3602125 33.1471619,22.6006805 L32.2547643,22.6006805 C31.8566503,22.6006805 31.5341992,22.9264184 31.5341992,23.32815 C31.5341992,23.7295247 31.8566503,24.0552626 32.2547643,24.0552626 L32.8317821,24.0552626 C31.089061,31.3438712 26.7868843,37.7476715 20.7225404,42.0793078 C12.6863655,36.3476764 7.86126637,27.0753846 7.74812562,17.1455518 L9.2620902,16.0184915 C9.50817132,16.9807205 10.3676874,17.653603 11.3523654,17.6550301 L14.2420507,17.6550301 C14.2420507,17.6710851 14.235333,17.6853562 14.235333,17.7021248 L14.235333,18.964047 L10.6314468,18.964047 C10.3588483,18.964047 10.108878,19.1199587 9.98689809,19.366492 C9.86491822,19.6123118 9.89072845,19.9077236 10.0547825,20.1278553 L10.9199557,21.2916637 C11.7497723,22.4030258 12.9929062,23.1255003 14.3622628,23.2924722 C14.7815907,27.1217657 16.368036,30.7259325 18.9030958,33.6069112 C19.365205,34.131731 20.027432,34.4317809 20.7236011,34.4317809 C21.4190631,34.4317809 22.0816436,34.131731 22.5441064,33.6069112 C23.6429858,32.3589034 24.5714471,30.9678277 25.3036798,29.4704323 C25.418942,29.2370998 25.4019708,28.9595269 25.2587771,28.7422493 C25.1152298,28.5253286 24.8677344,28.4022403 24.6103392,28.4200792 C24.3522369,28.4372045 24.1234804,28.5927595 24.0103397,28.8271624 C23.3346773,30.2064644 22.4783433,31.4883661 21.464673,32.6379034 C21.2723337,32.8451912 21.0036244,32.9632845 20.7221868,32.9632845 C20.4403957,32.9632845 20.1716864,32.8451912 19.9793471,32.6379034 C17.7165323,30.0630398 16.2732807,26.8613181 15.8376888,23.4480272 L20.0016217,26.6008705 L20.0016217,28.4193656 C20.0016217,28.8210972 20.3244264,29.1464783 20.7225404,29.1464783 C21.1206544,29.1464783 21.4431055,28.8210972 21.4431055,28.4193656 L21.4431055,26.2373141 C21.4431055,26.0086197 21.3363289,25.7931261 21.1545966,25.6554099 L15.6906058,21.5200013 C15.6906058,21.4193901 15.6768168,21.321633 15.6768168,21.2210218 L15.6768168,18.152378 L15.7599045,18.1102783 L16.5798214,18.7021722 C17.2915473,19.2170022 18.2405153,19.2473283 18.983355,18.7799497 C19.7261947,18.3125711 20.1165303,17.4398933 19.9719223,16.5682857 C19.948587,16.4280721 19.9114627,16.2899992 19.8619636,16.1565644 C20.4283745,16.0234864 21.0170599,16.0234864 21.5831172,16.1565644 C21.5332645,16.290356 21.4961402,16.4291425 21.472805,16.5697128 C21.3289041,17.4398933 21.7185325,18.311144 22.4603115,18.7785226 C23.2013834,19.2459012 24.1485835,19.2170022 24.8606631,18.7050265 L25.6851763,18.1109918 L25.7661426,18.152378 L25.7661426,21.2185243 C25.7664962,22.85649 25.5349112,24.4862499 25.0773983,26.057855 C25.0225958,26.2437361 25.0431026,26.4438883 25.1350294,26.614428 C25.2273098,26.7846109 25.3825248,26.9105534 25.5674392,26.9644268 C25.6335558,26.9840495 25.7021474,26.9936825 25.7710925,26.9936825 C26.0903616,26.9936825 26.3721527,26.7806863 26.4619582,26.4710034 C26.7607205,25.4320672 26.968263,24.3692269 27.0835251,23.2938993 C28.4525281,23.1258571 29.6949549,22.402669 30.5247716,21.2916637 L31.3902983,20.1278553 C31.5536452,19.9077236 31.5801626,19.6123118 31.4578292,19.366492 C31.3358493,19.1199587 31.0862325,18.964047 30.8132805,18.964047 L27.2090407,18.964047 L27.2090407,17.7028383 C27.2090407,17.6867833 27.2044443,17.6721554 27.2030301,17.6571708 L30.0927154,17.6571708 C31.0756256,17.653603 31.9326667,16.9810773 32.1783943,16.0206322 L33.6962481,17.1455518 C33.6799841,18.2397885 33.606089,19.3325982 33.47527,20.418629 L33.47527,20.418629 Z M14.235333,21.2185243 L14.235333,21.8007853 C13.3719277,21.6206126 12.6032778,21.1293299 12.0729305,20.418629 L14.235333,20.418629 L14.235333,21.2185243 Z M37.6894092,0.874711524 L36.5608303,2.09025264 L36.5498697,2.02460557 C36.3812193,0.971755018 35.4799826,0.198261286 34.4231773,0.198974347 C34.3019046,0.198974347 34.1816926,0.20932139 34.0625412,0.230371265 C33.4961304,0.324917316 32.9901791,0.64351967 32.6567675,1.11517959 C32.3230023,1.58719629 32.1893548,2.17338181 32.2844637,2.74458267 L32.8225894,6.0023185 L30.8132805,8.02596077 L30.8132805,6.01765993 C30.8132805,4.81282214 29.84522,3.83560843 28.650878,3.83560843 C27.4568896,3.83560843 26.4884756,4.81282214 26.4884756,6.01765993 L26.4884756,9.98181531 L21.1500003,6.01765993 C20.8957872,5.82892461 20.5489401,5.82892461 20.2950805,6.01765993 L18.1326781,7.62565636 C17.9201856,7.7776436 17.805277,8.03416666 17.8328551,8.2956846 C17.8604332,8.55684577 18.0255479,8.78304274 18.2645577,8.88722178 C18.5039211,8.99104405 18.7804088,8.95643663 18.9875978,8.79660029 L20.7225404,7.50292488 L26.4884756,11.7938885 L26.4884756,12.1734998 L22.6119908,14.9635003 C21.3967885,14.4893429 20.049353,14.4893429 18.8341507,14.9635003 L14.9562517,12.1695753 L14.9562517,11.7906775 L17.2629086,10.0756478 C17.4799974,9.92508768 17.5984416,9.66713751 17.5722778,9.40276535 C17.5457605,9.13874996 17.3785243,8.90934199 17.1359788,8.80623328 C16.8934334,8.70241101 16.6144707,8.74058621 16.4079889,8.90541744 L14.9562517,9.98395598 L14.9562517,6.01765993 C14.9562517,4.81282214 13.9881912,3.83560843 12.7938492,3.83560843 C11.5995072,3.83560843 10.6314468,4.81282214 10.6314468,6.01765993 L10.6314468,8.02489044 L8.6217843,5.99803717 L9.16026353,2.74030134 C9.34128872,1.55936765 8.54682856,0.451573347 7.37865038,0.255345694 C6.21082577,0.0587612628 5.10346074,0.846882875 4.89485749,2.02317846 L4.88425055,2.09025264 L3.72208297,0.839033769 C2.8664561,0.0152344015 1.52043481,0.0152344015 0.664807938,0.839033769 C-0.169958611,1.68102879 -0.18091912,3.04320548 0.639351271,3.89911483 L4.7781811,8.28854905 L6.00328322,9.52478327 C6.28648864,9.80057232 6.73586953,9.79629099 7.01377148,9.51622061 C7.29167343,9.23579345 7.29591621,8.78197241 7.0226106,8.49655036 L5.80952969,7.27316014 L1.67105343,2.88336914 C1.39951564,2.59723354 1.40552624,2.14448283 1.68378176,1.86548279 C1.96345154,1.59896995 2.39833627,1.5918344 2.68613804,1.84871424 L5.82614724,5.23203576 L6.31689521,2.2625762 C6.37205133,1.91222064 6.67046004,1.65427047 7.02190347,1.65320014 C7.06645264,1.65355692 7.11029468,1.65748147 7.15378315,1.66604413 C7.54270446,1.73597253 7.80328173,2.1084483 7.73857937,2.50161716 L7.07882741,6.49645541 L12.0729305,11.5366519 L12.0729305,6.01765993 C12.0729305,5.61592841 12.3957352,5.29019051 12.7938492,5.29019051 C13.1916097,5.29019051 13.5144143,5.61592841 13.5144143,6.01765993 L13.5144143,12.9177378 L18.1995018,16.2924966 C18.2345047,16.3313854 18.2730433,16.365636 18.3158246,16.3952486 C18.4392188,16.5012115 18.5226601,16.64642 18.5520059,16.8076834 C18.5845339,16.9974891 18.5399847,17.1930032 18.4282583,17.3496285 C18.1913698,17.6707283 17.7458781,17.7456516 17.4188307,17.5187411 L15.5909005,16.200448 L11.3523654,16.200448 C10.9542514,16.200448 10.6314468,15.8747101 10.6314468,15.4729786 C10.6314468,15.0712471 10.9542514,14.7455092 11.3523654,14.7455092 L13.2152985,14.7455092 L9.41270881,10.9083666 C9.23415858,10.7075009 8.9604994,10.6233014 8.70133639,10.6885916 C8.44252694,10.7542387 8.24028786,10.9586722 8.17629262,11.220547 C8.11265096,11.4820649 8.19786008,11.7582107 8.39727064,11.9376699 L10.0664502,13.6220167 L6.60646481,16.1968803 C6.41978258,16.3324557 6.30840966,16.5497333 6.30664183,16.7819955 C6.30452045,27.4938847 11.5443511,37.5157661 20.3081624,43.5610049 C20.4283745,43.6455612 20.5708611,43.6901584 20.7172369,43.6887645 C20.8692698,43.6887645 21.017767,43.6430638 21.1425754,43.5563668 C27.8033831,38.9560771 32.5040275,31.9942767 34.3082688,24.0552626 L34.4171667,24.0552626 C34.8152807,24.0552626 35.1377318,23.7295247 35.1377318,23.32815 C35.1356105,23.004196 34.9188752,22.7226985 34.6087989,22.6399261 C34.6551159,22.3859005 34.685876,22.1308045 34.7258288,21.8732111 L35.1377318,21.8732111 C35.5358458,21.8732111 35.8586505,21.5474732 35.8586505,21.1457417 C35.8586505,20.7443669 35.5358458,20.418629 35.1377318,20.418629 L34.9273608,20.418629 C35.0648975,19.2112938 35.1352569,17.9971798 35.1377318,16.7819955 C35.1366711,16.5522307 35.0281267,16.3367371 34.8446266,16.200448 L31.3846412,13.6255844 L36.6948313,8.26821273 L40.7831014,3.92944092 C41.6274142,3.07745613 41.6274142,1.69637023 40.7831014,0.844385432 C39.9172211,-0.00153414347 38.5386719,0.0120234035 37.6894092,0.874711524 L37.6894092,0.874711524 Z" id="Fill-1" fill="#2D4031" mask="url(#mask-2)"></path>
                </g>
                <g id="Group-6" transform="translate(59.290003, 14.718438)">
                    <mask id="mask-4" fill="white">
                        <use xlink:href="#path-3"></use>
                    </mask>
                    <g id="Clip-5"></g>
                    <path d="M11.0548876,7.41135632 C11.0743642,6.317025 10.9609674,5.37713927 10.7142645,4.59169914 C10.4679944,3.806259 10.100104,3.16478586 9.61838414,2.66727969 C9.13666423,2.16977353 8.53851786,1.80530015 7.82870595,1.57431515 C7.11846123,1.34424133 6.31343066,1.22943221 5.41188297,1.23123322 C4.98815989,1.23171017 4.56486962,1.23216576 4.14114654,1.23262136 C4.20217305,4.83771867 4.14028091,8.43734888 4.12164294,12.0470021 C4.12080436,12.1873244 4.14071372,12.3076006 4.18139806,12.4055528 C4.22121678,12.5039606 4.30258546,12.5814112 4.4250713,12.6379046 C4.54669151,12.6939424 4.71635387,12.7363124 4.93405837,12.7645591 C5.15089725,12.7932614 5.44347826,12.8073847 5.81007014,12.8078454 C7.57637647,12.8096627 8.87784257,12.3249131 9.72658717,11.3535915 C10.574899,10.3822699 11.024158,9.06834342 11.0548876,7.41135632 M13.8911056,7.00998001 C13.8746587,7.83824576 13.7166823,8.66013323 13.4258325,9.47564242 C13.1336843,10.2916072 12.6969769,11.0273878 12.1174414,11.6825287 C11.537906,12.3376696 10.8081847,12.866156 9.92438232,13.2670767 C9.04057994,13.6675419 7.99533862,13.867091 6.78649432,13.8648131 C5.39370486,13.8625351 4.00134821,13.8598016 2.60855876,13.8575236 C2.25538405,13.8566124 1.84464533,13.8666355 1.37590979,13.8871371 C0.907174241,13.9076387 0.461810551,13.9308739 0.0411171531,13.9582094 C0.0134171763,13.9021716 3.23119309e-12,13.8388444 3.23119309e-12,13.7686832 L3.23119309e-12,13.6005699 C3.23119309e-12,13.4465799 0.0238046676,13.3449829 0.0718468149,13.295779 C0.119023338,13.2474863 0.176587352,13.2155949 0.244538858,13.2014715 C0.638830716,13.1326772 0.955216388,13.0379141 1.19283025,12.9185491 C1.43087693,12.8000952 1.55033308,12.592801 1.55076589,12.2984887 C1.55769088,8.78450977 1.58062993,5.27463113 1.56158619,1.76293012 C1.56028776,1.48228562 1.45987534,1.28319204 1.26121457,1.163827 C1.06212099,1.04491756 0.723661895,0.944231794 0.245837294,0.860858508 C0.136335823,0.833523005 0.0683843178,0.787508241 0.0411171531,0.724636583 C0.0134171763,0.661764925 3.23119309e-12,0.574291314 3.23119309e-12,0.461760158 L3.23119309e-12,0.293646812 C3.23119309e-12,0.223485686 0.0134171763,0.153324561 0.0411171531,0.0831634352 C0.326340352,0.111410122 0.581266701,0.128267016 0.805463389,0.134189708 C1.03009289,0.141023584 1.23697709,0.151046602 1.42741443,0.164714354 C1.61785177,0.178382106 1.80828911,0.185215981 1.99872645,0.18476039 C2.18916379,0.184304798 2.38652613,0.184304798 2.59038065,0.183849206 C3.97018574,0.181115656 5.35042365,0.178382106 6.73022874,0.176104147 C7.88540434,0.173826188 8.90987067,0.354696103 9.80535898,0.71871389 C10.6999817,1.08227609 11.4591342,1.57340396 12.0711305,2.19027516 C12.6839925,2.80760195 13.1488327,3.52971483 13.4574278,4.35752499 C13.7673213,5.18533515 13.9101493,6.06963869 13.8911056,7.00998001" id="Fill-4" fill="#2D4031" mask="url(#mask-4)"></path>
                </g>
                <path d="M84.2644596,16.5764504 C84.3846473,18.2177428 84.3782994,19.8519966 84.3330174,21.4880101 C85.2720903,21.4880101 86.2111631,21.4875702 87.1493896,21.4875702 C87.4020379,21.4875702 87.5785108,21.3819925 87.6775387,21.1712772 C87.7761435,20.9610017 87.865438,20.6183143 87.9386509,20.1423351 C87.9530396,20.0336781 87.9936665,19.9624132 88.0609547,19.9281005 C88.1273965,19.8946676 88.2141518,19.8775112 88.3207973,19.8775112 C88.361001,19.8775112 88.4240572,19.8810304 88.5108125,19.8871891 C88.5971446,19.8942276 88.660624,19.9047854 88.7004045,19.9179826 C88.6703576,20.2307564 88.641157,20.5941194 88.6102637,21.0080717 C88.5793703,21.4233438 88.5573641,21.7726298 88.5467842,22.0576894 C88.5378971,22.3022776 88.5328187,22.5912964 88.5323955,22.9243058 C88.5315491,23.2577552 88.5417058,23.6351953 88.5637121,24.0570659 C88.5230852,24.08478 88.4591825,24.1014965 88.3728505,24.1080951 C88.285672,24.1151336 88.2230389,24.1186529 88.1832585,24.1186529 C87.9441525,24.1186529 87.8218487,24.0231931 87.8167704,23.8318336 C87.7592157,23.3149431 87.6838867,22.9647773 87.5916299,22.7808962 C87.499373,22.597895 87.3394048,22.5063944 87.1138411,22.5063944 L84.3004313,22.5063944 C84.2466853,24.0280321 84.1747419,25.5518693 84.1540053,27.0849446 C84.1497733,27.3722037 84.3211679,27.564443 84.6656498,27.6607826 C85.0101317,27.7571222 85.5941427,27.8055119 86.4164134,27.8068317 C86.6948766,27.8068317 86.9733399,27.8072716 87.2522263,27.8077115 C87.650031,27.8081514 87.9847794,27.7540428 88.2568947,27.644506 C88.52901,27.5354091 88.7715015,27.3814418 88.9856389,27.182164 C89.1997763,26.983766 89.3889451,26.7510553 89.5539917,26.4835919 C89.7186151,26.2174483 89.8857777,25.9196314 90.0559027,25.5919008 C90.0986455,25.4968809 90.1930183,25.4484912 90.3390211,25.4489311 C90.4050397,25.4489311 90.4837543,25.4696067 90.5751647,25.510518 C90.6665751,25.5514294 90.7579855,25.5923407 90.849396,25.633692 C90.819349,25.7432288 90.7863397,25.8452871 90.7507912,25.9411868 C90.7143963,26.0370865 90.6822334,26.1329862 90.653456,26.228446 C90.5827822,26.379334 90.5264971,26.5429794 90.4833311,26.7215815 C90.4405882,26.8997438 90.399115,27.0431534 90.3580649,27.1526902 C90.3301339,27.2899411 90.2988174,27.4447883 90.2662313,27.616352 C90.2327988,27.7879157 90.1997894,27.9528807 90.1684729,28.1108073 C90.1367332,28.2691737 90.1058398,28.4099439 90.0749465,28.5344375 C90.0444764,28.6580514 90.0228933,28.7407538 90.0110438,28.7821051 C89.9606835,28.8925217 89.856154,28.94751 89.6970321,28.9470728 C89.5903866,28.9470728 89.4376127,28.9395917 89.237864,28.9255147 C89.0385385,28.9114377 88.8222851,28.9008799 88.5899502,28.8938414 C88.3571922,28.8859231 88.1210486,28.8753653 87.8819426,28.8612883 C87.6424134,28.8472113 87.4363168,28.8397329 87.2636526,28.839293 C85.756227,28.8366535 84.2488013,28.8340141 82.7417988,28.8313746 C82.3562669,28.8304948 81.9152962,28.8406127 81.417194,28.8599686 C80.919515,28.8802043 80.4717732,28.9030795 80.0735454,28.9294739 C80.0460376,28.8744855 80.0320721,28.8027807 80.0312257,28.7134796 C80.0299561,28.6246184 80.0295329,28.5590723 80.0290919,28.518161 C80.0278401,28.3127245 80.094282,28.2031877 80.2271657,28.1891107 C80.7311926,28.0945307 81.0926023,27.9920324 81.3118181,27.8824956 C81.531457,27.7733987 81.6414881,27.5815994 81.6444505,27.3079773 C81.6816918,23.8806633 81.9635406,20.4964601 81.7781806,17.0898217 C81.770563,16.9538905 81.7439016,16.8421541 81.6986196,16.7532929 C81.6529144,16.6648717 81.5708143,16.5900875 81.4535889,16.5293804 C81.3363635,16.4686732 81.1857056,16.4141248 81.0024615,16.3666148 C80.8187943,16.3191049 80.585613,16.2689555 80.3020714,16.214847 C80.165379,16.1739357 80.09005,16.0516416 80.0722758,15.8475248 C80.0667742,15.7793392 80.0604263,15.7146729 80.0549247,15.653086 C80.0494232,15.5919389 80.0561943,15.5272726 80.0765077,15.4590871 C80.6512085,15.4986787 81.1594674,15.5250731 81.5995917,15.5382703 C82.0392928,15.5510276 82.4184768,15.5571863 82.7375669,15.5563065 C84.0998362,15.5541069 85.4616823,15.5514675 86.8239516,15.5488281 C87.4215049,15.5479483 87.9339958,15.5263928 88.3614242,15.4846017 C88.787583,15.4432504 89.0812813,15.4221349 89.2404031,15.4216926 C89.3868291,15.4212551 89.500669,15.4824021 89.5814995,15.605576 C89.6339758,15.7151128 89.690261,15.9165902 89.7448533,16.210008 C89.7990224,16.5043057 89.869273,16.8074015 89.9551819,17.1206151 C90.0097743,17.3533258 90.067329,17.5772384 90.129962,17.7954322 C90.1917487,18.0131861 90.28062,18.2784499 90.3931902,18.5912236 C90.3271716,18.6189378 90.2543818,18.6457721 90.1752441,18.6730463 C90.0956831,18.7007604 90.015699,18.7135177 89.9357149,18.7135177 C89.7892889,18.7139576 89.681797,18.6532505 89.612816,18.5305165 C89.4456534,18.1772713 89.2780676,17.8746154 89.1134442,17.6225488 C88.9483976,17.371362 88.7630376,17.1668054 88.5599033,17.0101985 C88.356769,16.8535917 88.1223182,16.7414155 87.8573972,16.6736698 C87.5928995,16.6059242 87.2801573,16.5720513 86.9208635,16.5724912 C86.0359598,16.573811 85.1502097,16.5751307 84.2644596,16.5764504" id="Fill-7" fill="#2D4031"></path>
                <path d="M102.35502,16.5793865 C102.501206,18.2235362 102.474858,19.8563016 102.40389,21.4899428 C103.342624,21.4899428 104.280933,21.4903806 105.219242,21.4903806 C105.471667,21.4903806 105.649725,21.3852952 105.75214,21.1746864 C105.853705,20.9645154 105.948046,20.6216741 106.027088,20.1470381 C106.042812,20.0384498 106.084033,19.9670792 106.152026,19.9329265 C106.21917,19.8992115 106.305861,19.8821351 106.412951,19.8821351 C106.452472,19.8821351 106.515791,19.8852001 106.602483,19.8922058 C106.688749,19.8987737 106.752068,19.9092822 106.791589,19.9228558 C106.758017,20.235485 106.724021,20.5984677 106.687049,21.0122418 C106.650503,21.4260158 106.622881,21.775425 106.608432,22.0604693 C106.595683,22.3043551 106.586759,22.5929023 106.58166,22.925673 C106.57656,23.2588815 106.582085,23.6354377 106.600358,24.0570932 C106.559137,24.0846781 106.494968,24.1017545 106.408276,24.1074466 C106.32116,24.1148902 106.258266,24.118393 106.21832,24.118393 C105.979068,24.118393 105.85753,24.0229404 105.854555,23.8320351 C105.802285,23.3158028 105.732167,22.9659557 105.642501,22.782494 C105.55241,22.5990323 105.394325,22.5079582 105.168247,22.5079582 C104.230788,22.5075204 103.292904,22.5070825 102.35502,22.5070825 C102.276828,24.0260054 102.183762,25.5475553 102.177812,27.0818032 C102.176962,27.3694746 102.352045,27.5616935 102.699237,27.6584597 C103.046003,27.754788 103.632871,27.8038279 104.458141,27.8051415 C104.737764,27.8055793 105.017386,27.8060172 105.297009,27.806455 C105.696046,27.8068929 106.030913,27.7525987 106.302037,27.6431347 C106.57316,27.5336707 106.814112,27.3795453 107.026166,27.1807586 C107.237796,26.981972 107.424778,26.7494704 107.588387,26.4823781 C107.751571,26.2161616 107.91773,25.9184195 108.087713,25.591341 C108.130634,25.4963262 108.224975,25.4477242 108.371586,25.448162 C108.437879,25.448162 108.516922,25.4691791 108.608288,25.5098997 C108.699654,25.5510582 108.79187,25.5917788 108.883236,25.6329373 C108.853489,25.7424013 108.820342,25.8444218 108.785071,25.9403123 C108.749374,26.0362028 108.717502,26.1312175 108.68903,26.227108 C108.619337,26.3781684 108.564092,26.5419266 108.522871,26.7196962 C108.48165,26.8979036 108.441704,27.0419583 108.402608,27.1514223 C108.37626,27.2889091 108.347788,27.4434723 108.317616,27.614674 C108.287444,27.7867515 108.258547,27.9518232 108.230499,28.1098893 C108.202877,28.2683932 108.175255,28.4098207 108.148482,28.533734 C108.121285,28.6576473 108.102587,28.7404021 108.091963,28.7815606 C108.045217,28.8919003 107.941953,28.947508 107.782168,28.9470728 C107.675078,28.9470728 107.521668,28.9396266 107.320663,28.9256152 C107.119657,28.911166 106.902078,28.9006574 106.668351,28.8936517 C106.434624,28.8857703 106.197497,28.8748239 105.956545,28.8612504 C105.715594,28.8468011 105.508214,28.8393576 105.335256,28.8393576 C103.821978,28.8362926 102.308275,28.8336655 100.794996,28.8310383 C100.407859,28.8301626 99.965052,28.8402333 99.4661505,28.859499 C98.966399,28.8796403 98.5176426,28.9028467 98.1186063,28.9295559 C98.0892842,28.8743861 98.0731357,28.8021398 98.070161,28.7128172 C98.0667613,28.6234945 98.0646365,28.5578161 98.0633617,28.5166576 C98.0569873,28.3104274 98.121581,28.2009634 98.2545931,28.186952 C98.7585942,28.0919372 99.1198091,27.9894789 99.337388,27.8800148 C99.5558168,27.7705508 99.6633313,27.578332 99.6633313,27.3042341 C99.6646062,23.8731936 100.103589,20.503453 99.8719861,17.0934296 C99.862637,16.9572563 99.8341647,16.8451652 99.7869943,16.7562804 C99.7398239,16.6678334 99.6556821,16.59296 99.5371186,16.532098 C99.4181301,16.4707982 99.2659949,16.4169419 99.0811378,16.3692156 C98.8962808,16.3214893 98.6612786,16.2706979 98.3752814,16.2164038 C98.2371698,16.176121 98.1585524,16.0530835 98.1339048,15.8486047 C98.1258306,15.780737 98.1181813,15.7154964 98.1101071,15.6541965 C98.1024579,15.5924588 98.1067075,15.528094 98.1241308,15.4589127 C98.7033495,15.4987576 99.2141499,15.5254668 99.656532,15.5386025 C100.098489,15.5513004 100.479252,15.5574303 100.799671,15.5569925 C102.167188,15.5543654 103.534705,15.5517382 104.902223,15.5495489 C105.502264,15.5486732 106.016464,15.5272183 106.444398,15.4851841 C106.871481,15.4431499 107.165978,15.4221328 107.325762,15.4216926 C107.472373,15.4212571 107.587962,15.4829948 107.671679,15.6064702 C107.726498,15.7159343 107.786418,15.9182238 107.844212,16.2124631 C107.902006,16.5071402 107.974674,16.8114502 108.061791,17.1249552 C108.117036,17.3574568 108.17483,17.5825149 108.236874,17.8001293 C108.298918,18.0181817 108.386459,18.2839603 108.497374,18.5965896 C108.430655,18.6241745 108.357987,18.6513216 108.27852,18.6784687 C108.198628,18.7056158 108.118735,18.7191893 108.038843,18.7191893 C107.891807,18.7191893 107.785143,18.6583273 107.716724,18.5361655 C107.55184,18.1823777 107.384407,17.8793813 107.219523,17.627614 C107.054639,17.3754089 106.867657,17.1709301 106.663677,17.0141776 C106.459271,16.8574251 106.222994,16.745334 105.95697,16.6770284 C105.690946,16.6091607 105.377751,16.5750079 105.017386,16.5754458 C104.130073,16.5767594 103.242759,16.5780729 102.35502,16.5793865" id="Fill-9" fill="#2D4031"></path>
                <path d="M120.293267,21.8306259 C120.728423,21.8306259 121.124468,21.7901842 121.480505,21.7097355 C121.836092,21.6284171 122.146725,21.4896975 122.411055,21.2940115 C122.674936,21.0978906 122.882624,20.8374109 123.031872,20.5125721 C123.179771,20.1877334 123.264734,19.7741837 123.275073,19.2727927 C123.292156,18.4322127 123.063339,17.7655758 122.615596,17.2754912 C122.166954,16.7849716 121.394193,16.5401467 120.323836,16.5414461 C120.112551,16.5418862 119.900817,16.542321 119.689533,16.542321 C119.845524,18.3161057 119.768652,20.0733658 119.661212,21.8306259 L120.293267,21.8306259 Z M120.503203,22.845149 C120.201111,22.845149 119.899469,22.8447142 119.597377,22.8447142 C119.507918,24.2580018 119.423854,25.6738986 119.450827,27.1011017 C119.45712,27.415069 119.603671,27.6377161 119.884184,27.7681734 C120.164249,27.8986308 120.638514,28.0056058 121.305634,28.0890984 C121.50478,28.1173642 121.611322,28.2539095 121.631101,28.5013436 C121.640092,28.6117974 121.636945,28.735297 121.622111,28.8727121 C121.209881,28.8444463 120.696505,28.8200943 120.081083,28.7974817 C119.465662,28.7761737 118.798093,28.7644325 118.078827,28.7635628 C117.570846,28.7626931 117.081295,28.7722599 116.610626,28.7918285 C116.139506,28.8122669 115.700754,28.8348795 115.29392,28.8618406 C115.261103,28.8070486 115.241773,28.7448639 115.236828,28.6761564 C115.231433,28.6078837 115.227387,28.5526568 115.22469,28.5113453 C115.208507,28.2782616 115.279984,28.1482391 115.433277,28.1208431 C115.726378,28.0669207 115.962837,28.0160423 116.144002,27.9677731 C116.324268,27.9203736 116.462727,27.8660164 116.558928,27.8042666 C116.65513,27.7425168 116.718965,27.6677213 116.751332,27.5790103 C116.783249,27.4902993 116.797635,27.3776712 116.794937,27.2402561 C116.72436,23.8187955 117.289433,20.4651726 117.064213,17.0563229 C117.046231,16.7845368 116.926204,16.5862416 116.710424,16.4640466 C116.493745,16.3418516 116.092305,16.2470526 115.507002,16.1796497 C115.433277,16.1522536 115.372589,16.1118119 115.324039,16.0570198 C115.275039,16.0030974 115.242672,15.9069939 115.22469,15.7700137 C115.217498,15.7156565 115.209406,15.6543415 115.199516,15.5860689 C115.190076,15.5173613 115.19547,15.4621344 115.217947,15.4216926 C115.61714,15.448219 116.075672,15.4717013 116.593993,15.4912699 C117.111864,15.5108385 117.575341,15.5199705 117.984423,15.5195356 C119.049836,15.5173613 120.115249,15.5160568 121.180661,15.5143173 C121.928248,15.5130128 122.611551,15.6012889 123.226073,15.778276 C123.841046,15.9552631 124.373752,16.2079154 124.817,16.5357982 C125.259798,16.863246 125.600999,17.2520088 125.832963,17.7016517 C126.064926,18.1512946 126.176412,18.6479022 126.165623,19.1906046 C126.151238,19.9098593 125.889605,20.5634505 125.399605,21.1522479 C124.909156,21.7414801 124.251477,22.1837304 123.432413,22.4811731 C124.43444,24.0314409 125.43422,25.5843179 126.585045,27.15198 C126.848926,27.5081285 127.155063,27.7555626 127.494916,27.8929776 C127.83387,28.0308275 128.148549,28.1347585 128.435806,28.203466 C128.506833,28.2178163 128.566173,28.2486912 128.612476,28.2965256 C128.658778,28.3447948 128.687099,28.4304618 128.698788,28.5548311 C128.703732,28.6096232 128.710026,28.6713729 128.717668,28.7405153 C128.724861,28.8092229 128.718118,28.8779304 128.697888,28.9470728 C128.540999,28.9327224 128.321173,28.9222859 128.038412,28.9148933 C127.755201,28.9070658 127.461201,28.8966293 127.156412,28.8822789 C126.851173,28.8683635 126.547284,28.8570572 126.242944,28.8500995 C125.939054,28.842272 125.68821,28.8387932 125.490862,28.8383583 C125.194614,28.8379235 124.88488,28.717033 124.567954,28.4752521 C124.251926,28.2347758 123.939945,27.9151553 123.642798,27.5172605 C122.488376,25.9482938 121.492643,24.3945471 120.503203,22.845149 L120.503203,22.845149 Z" id="Fill-11" fill="#2D4031"></path>
                <path d="M136.768085,17.1027687 C136.762786,16.9799961 136.741996,16.8741427 136.705307,16.7852085 C136.668618,16.6958404 136.596463,16.6177518 136.489658,16.5487736 C136.383668,16.4802291 136.238951,16.4229642 136.05673,16.3748095 C135.874101,16.3266549 135.640108,16.2763311 135.35475,16.2216691 C135.223486,16.1804557 135.1497,16.0572493 135.129725,15.8507483 C135.123203,15.7826377 135.116681,15.7171301 135.110158,15.655093 C135.103228,15.5934898 135.108527,15.5279821 135.126464,15.4590039 C135.681281,15.4993497 136.170873,15.525813 136.594425,15.5392616 C137.017977,15.5518425 137.37712,15.5579161 137.671446,15.5574823 C138.982867,15.5553132 140.293881,15.5527102 141.605303,15.5505411 C142.193955,15.5492396 142.694146,15.5275483 143.105876,15.4850334 C143.517606,15.4433862 143.79318,15.4221287 143.934228,15.4216926 C144.074869,15.4212611 144.183712,15.4832981 144.259128,15.607806 C144.308047,15.7184315 144.358188,15.9210281 144.403438,16.2173309 C144.448687,16.5136337 144.507389,16.8194807 144.580359,17.134438 C144.625609,17.3678361 144.67412,17.5938592 144.726299,17.8125073 C144.778479,18.0311553 144.85471,18.297958 144.950916,18.6116139 C144.899144,18.6389449 144.832289,18.6662759 144.749128,18.6936069 C144.665559,18.7213717 144.586066,18.7348203 144.509428,18.7348203 C144.369195,18.7348203 144.275027,18.6736509 144.226108,18.5508783 C144.07813,18.1964428 143.927298,17.8918973 143.777689,17.6385432 C143.627673,17.3860568 143.456051,17.1804235 143.265269,17.0229448 C143.074894,16.8654662 142.852723,16.7522377 142.600386,16.6841271 C142.348048,16.6164503 142.042308,16.5821781 141.685203,16.582612 C140.841768,16.5839134 139.999148,16.5852149 139.155713,16.5865164 C139.257218,18.3213846 139.168758,20.0380321 139.067659,21.7525105 C139.945745,21.7525105 140.823424,21.7529444 141.701917,21.7533782 C141.917974,21.7533782 142.080627,21.6414512 142.189063,21.4175972 C142.297091,21.1937433 142.396559,20.8579623 142.482574,20.4098206 C142.529046,20.2332536 142.653788,20.1447532 142.857615,20.1447532 C142.895935,20.1447532 142.956267,20.1486576 143.038613,20.1547312 C143.120552,20.1621062 143.180884,20.1716504 143.218389,20.185099 C143.178438,20.498321 143.137265,20.8614329 143.094462,21.2753025 C143.051251,21.6896058 143.021084,22.0384015 143.00437,22.3234249 C142.990103,22.5681025 142.979096,22.8565964 142.974204,23.1889068 C142.969312,23.521651 142.976242,23.8982115 142.997848,24.3190222 C142.959121,24.3463532 142.900826,24.3632724 142.82378,24.3697798 C142.747549,24.3771549 142.690069,24.3797578 142.65175,24.3797578 C142.434878,24.3797578 142.311359,24.28475 142.280785,24.0943006 C142.248581,23.6596075 142.190286,23.3307677 142.100195,23.1069138 C142.010511,22.882626 141.858048,22.770699 141.641992,22.7702652 C140.763906,22.7698313 139.885413,22.7693975 139.007327,22.7689637 C138.919681,24.2869191 138.849565,25.8061761 138.920496,27.3380139 C138.927019,27.474669 138.978383,27.5874636 139.072959,27.6768317 C139.167535,27.7661997 139.293907,27.8416854 139.451669,27.9032886 C139.609431,27.9653256 139.79206,28.0139141 139.999148,28.0486201 C140.206236,28.0833262 140.426777,28.121069 140.659954,28.1627162 C140.814863,28.1765987 140.900878,28.2941654 140.922483,28.5136811 C140.92656,28.5544607 140.930636,28.6238727 140.934713,28.7197482 C140.938382,28.8164913 140.937974,28.8915431 140.932267,28.9470728 C140.752899,28.9466389 140.573532,28.9427345 140.393757,28.9353595 C140.213166,28.9284183 140.032983,28.9171388 139.852393,28.9036902 C139.516078,28.8754915 139.159381,28.8577047 138.781079,28.8498958 C138.403184,28.8425208 138.02855,28.8381825 137.657993,28.8377487 C137.478218,28.8373149 137.284175,28.8403517 137.073418,28.8464252 C136.863069,28.8529326 136.643751,28.8624768 136.415057,28.8763592 C136.185956,28.889374 135.960116,28.8989181 135.737129,28.9062932 C135.514143,28.9128005 135.307462,28.9227785 135.116681,28.9357933 C135.084884,28.8802636 135.064093,28.8082486 135.055125,28.7188805 C135.045749,28.6295125 135.039634,28.5644387 135.035965,28.5232252 C135.016805,28.3175919 135.073062,28.2082679 135.199842,28.1939517 C135.612795,28.0850615 135.937287,27.9796419 136.173319,27.8772591 C136.408943,27.7753101 136.518601,27.586596 136.506779,27.3132859 C136.361247,23.8886673 136.908318,20.5282549 136.768085,17.1027687" id="Fill-13" fill="#2D4031"></path>
                <path d="M155.95577,27.3191099 C155.964549,27.4558917 155.982107,27.5688665 156.009279,27.6580344 C156.035198,27.7467694 156.094142,27.8259816 156.185694,27.8943725 C156.277245,27.9631963 156.406421,28.0216315 156.575311,28.0696783 C156.7442,28.1185907 156.968272,28.1631747 157.247943,28.2047286 C157.381717,28.2324313 157.459055,28.3493018 157.483302,28.5549073 C157.488318,28.5964612 157.492499,28.6583593 157.497097,28.7406015 C157.500442,28.8237094 157.500024,28.8916675 157.495007,28.9470728 C157.070693,28.9185044 156.618369,28.8942646 156.136783,28.8721891 C155.65436,28.8505464 155.230046,28.839725 154.863421,28.8392922 C154.482583,28.8384265 154.057433,28.8479493 153.58797,28.8674277 C153.118507,28.8877718 152.674962,28.910713 152.259009,28.9371171 C152.225147,28.8821447 152.202991,28.8137538 152.192958,28.7310787 C152.182925,28.6484037 152.174982,28.5865056 152.170383,28.5458174 C152.145301,28.3259277 152.200064,28.2099229 152.32924,28.1956387 C152.600968,28.1558162 152.815843,28.1116651 152.975536,28.0636183 C153.135228,28.0160044 153.250608,27.958002 153.323766,27.8891783 C153.396506,27.8212202 153.44249,27.7428737 153.462139,27.653273 C153.481787,27.564538 153.486803,27.451996 153.478442,27.3147814 C153.271511,23.8896099 153.804934,20.5198437 153.733449,17.0816866 C153.730523,16.9440392 153.714219,16.8310643 153.684956,16.7414636 C153.655693,16.6522958 153.600511,16.5735164 153.518993,16.5046926 C153.437892,16.4358689 153.314151,16.3778665 153.147352,16.3293869 C152.981388,16.281773 152.759407,16.2367562 152.482244,16.1965008 C152.348888,16.1553797 152.276984,16.0385092 152.263607,15.8450236 C152.260681,15.8039025 152.256082,15.7420044 152.249812,15.6593293 C152.243123,15.5766543 152.249394,15.5000392 152.269878,15.4312154 C152.691684,15.4584852 153.140245,15.4814265 153.613888,15.5013377 C154.088368,15.5208161 154.515191,15.5307718 154.896029,15.5303389 C155.263071,15.5294732 155.685295,15.5177862 156.162701,15.4970092 C156.640107,15.4753665 157.086996,15.450261 157.50504,15.4216926 C157.523434,15.4909492 157.538902,15.5671315 157.551443,15.6493737 C157.563566,15.7324816 157.570673,15.7948125 157.573181,15.8363665 C157.584886,16.0298521 157.52427,16.1471555 157.395931,16.1887094 C157.12253,16.2302634 156.905147,16.275713 156.743364,16.3241926 C156.581581,16.3726723 156.459513,16.4315404 156.377158,16.5003641 C156.294803,16.5691878 156.245056,16.6488329 156.227916,16.7384336 C156.210776,16.8276015 156.204088,16.9405763 156.206596,17.0782238 C156.266794,20.5194109 155.742567,23.892207 155.95577,27.3191099" id="Fill-15" fill="#2D4031"></path>
                <path d="M168.943719,16.5373104 C168.971692,18.1525565 168.883833,19.7522632 168.801884,21.3477702 L171.410467,21.3477702 C171.644495,21.3477702 171.809969,21.2448749 171.90689,21.0390843 C172.003417,20.8332937 172.093639,20.4989891 172.177559,20.0340703 C172.194106,19.9278152 172.234687,19.8580984 172.298118,19.8244999 C172.361156,19.7913215 172.441923,19.7749422 172.540814,19.7745222 C172.577455,19.7745222 172.635765,19.7783021 172.715744,19.7841818 C172.795329,19.7909015 172.853245,19.800981 172.89028,19.8144204 C172.851669,20.1201664 172.813058,20.4754701 172.775236,20.8799116 C172.736625,21.2851931 172.711016,21.6262174 172.698014,21.9042447 C172.686983,22.1427938 172.680285,22.4250209 172.679891,22.748826 C172.679497,23.0738912 172.691711,23.4413743 172.71929,23.8521155 C172.681073,23.8785743 172.621975,23.8953736 172.541996,23.9012533 C172.461229,23.908393 172.402525,23.9117528 172.365884,23.9117528 C172.142888,23.9117528 172.027056,23.8185171 172.020358,23.6328856 C171.960078,23.1293286 171.890737,22.7883042 171.805635,22.6093924 C171.720534,22.4304806 171.573184,22.3410247 171.363189,22.3414447 C170.492873,22.3410247 169.622951,22.3406047 168.75303,22.3401848 C168.684476,23.8227169 168.643108,25.3031491 168.727027,26.791561 C168.742786,27.0708482 168.918898,27.2568997 169.247482,27.3509753 C169.576461,27.445051 170.124496,27.4920889 170.892375,27.4937688 C171.152012,27.4941888 171.412437,27.4946088 171.672074,27.4950287 C172.043209,27.4958687 172.350912,27.4429511 172.59676,27.337116 C172.842213,27.2312808 173.05733,27.0813477 173.243685,26.8885765 C173.430435,26.6958053 173.592363,26.4698557 173.731046,26.2111475 C173.870518,25.9524394 174.011565,25.6630726 174.156552,25.3455672 C174.192798,25.2527514 174.279081,25.2061335 174.415401,25.2061335 C174.477257,25.2065535 174.551326,25.2262926 174.638397,25.2661908 C174.725862,25.3065089 174.812539,25.3464071 174.900004,25.3858853 C174.876365,25.4921404 174.849968,25.5920959 174.821601,25.6849116 C174.79284,25.7781474 174.766442,25.8709631 174.744773,25.9637789 C174.686857,26.1099322 174.643519,26.2691049 174.61397,26.442137 C174.584027,26.6147491 174.554478,26.7541827 174.523747,26.8608578 C174.506411,26.9939917 174.488288,27.1439248 174.469771,27.3098172 C174.451647,27.4765496 174.434312,27.6365623 174.417765,27.7894353 C174.401217,27.9427283 174.38467,28.079642 174.36694,28.2001765 C174.349605,28.320291 174.336997,28.4005073 174.329906,28.4399855 C174.293659,28.5470806 174.202254,28.6004181 174.053721,28.6000006 C173.954043,28.6000006 173.811026,28.5928585 173.624276,28.5794191 C173.436739,28.5655597 173.234624,28.5546402 173.017143,28.5483405 C172.799663,28.5407809 172.579425,28.5307013 172.354458,28.516422 C172.13028,28.5025626 171.938015,28.4958429 171.776874,28.4958429 C170.373101,28.4929031 168.969328,28.4903832 167.565555,28.4874433 C167.206634,28.4866034 166.796888,28.4962629 166.335924,28.515162 C165.874566,28.5344812 165.460092,28.5567401 165.092897,28.5831989 C165.060984,28.5294414 165.039315,28.4597246 165.028283,28.3727886 C165.017646,28.2858525 165.010554,28.2224354 165.005432,28.1829573 C164.982187,27.9826264 165.033799,27.8763713 165.156329,27.8629319 C165.616899,27.7709561 165.944301,27.6718407 166.138931,27.5651655 C166.333954,27.4589104 166.419843,27.2728589 166.402507,27.0070111 C166.187391,23.6769836 166.637323,20.391894 166.618018,17.0429673 C166.616836,16.9094134 166.597137,16.7989585 166.558526,16.7120224 C166.520309,16.6250864 166.447816,16.5511698 166.341834,16.4915325 C166.235457,16.4314753 166.097956,16.3781377 165.930512,16.3315199 C165.76228,16.284482 165.547951,16.2345043 165.286738,16.1811667 C165.161451,16.1416885 165.095655,16.0207341 165.086593,15.8191433 C165.083441,15.7527864 165.079896,15.6885293 165.076744,15.6280521 C165.073592,15.5671549 165.081471,15.5033178 165.102353,15.4361209 C165.636598,15.475599 166.1082,15.5016379 166.516764,15.5142373 C166.925721,15.5268367 167.278339,15.5327164 167.575011,15.5322964 L171.377372,15.5251568 C171.933287,15.5243168 172.41198,15.5033178 172.811482,15.4617397 C173.211773,15.4210015 173.485987,15.4000003 173.63452,15.4000003 C173.770445,15.3995825 173.872094,15.4600598 173.938677,15.5814342 C173.980046,15.6885293 174.017868,15.8871802 174.048993,16.176547 C174.078936,16.4659137 174.124245,16.7641001 174.185707,17.071526 C174.221559,17.2995755 174.262534,17.5204854 174.308236,17.7342556 C174.353939,17.9476059 174.421704,18.2084139 174.511533,18.5145799 C174.449283,18.5414587 174.380336,18.5683374 174.305478,18.5947962 C174.230621,18.622095 174.156158,18.6346944 174.082482,18.6351144 C173.946557,18.6351144 173.85003,18.5758971 173.792114,18.4553626 C173.654219,18.1088785 173.515142,17.8119521 173.376853,17.5645834 C173.237776,17.3176347 173.078211,17.1168839 172.899341,16.9635909 C172.720472,16.809458 172.510083,16.699423 172.268175,16.6326461 C172.027056,16.5658691 171.73984,16.5326906 171.406527,16.5331106 C170.58546,16.5347906 169.764786,16.5360505 168.943719,16.5373104" id="Fill-17" fill="#2D4031"></path>
                <path d="M186.444789,26.7916035 C186.459341,27.0710107 186.643678,27.2574218 186.993756,27.3516746 C187.344238,27.4455085 187.913418,27.4928444 188.702104,27.4941011 C188.943843,27.49452 189.185583,27.4949389 189.427323,27.4953578 C189.745465,27.4957767 190.019545,27.4593323 190.250774,27.3864434 C190.481195,27.3139735 190.680893,27.1908165 190.850272,27.0178102 C191.019247,26.8452229 191.171244,26.6223674 191.308284,26.3492437 C191.44492,26.0765389 191.579938,25.7472825 191.714957,25.3614743 C191.751743,25.2546545 191.846741,25.201454 191.999951,25.2018729 C192.063822,25.2018729 192.141033,25.2219802 192.230776,25.2621947 C192.320114,25.3024092 192.410261,25.341786 192.500004,25.3820005 C192.403793,25.8084421 192.322944,26.2704902 192.262307,26.7698206 C192.200861,27.2699888 192.15882,27.7596845 192.135778,28.2401644 C192.136586,28.4006036 192.104651,28.5003021 192.038758,28.5400977 C191.972462,28.5807312 191.901719,28.6000006 191.825316,28.6000006 C191.72385,28.5995817 191.579938,28.5928793 191.394793,28.5794745 C191.209648,28.5652318 191.008737,28.5547593 190.792465,28.5480569 C190.576193,28.5409355 190.355474,28.530463 190.13233,28.5166393 C189.908781,28.5032344 189.714742,28.4956942 189.54981,28.4956942 C188.108669,28.4931808 186.667933,28.4906674 185.226792,28.4877351 C184.858523,28.4873162 184.438106,28.4961131 183.964329,28.5153825 C183.490147,28.534652 183.064879,28.5568538 182.687313,28.5828257 C182.655377,28.5296252 182.634761,28.4596687 182.625059,28.3729561 C182.614953,28.2862435 182.608485,28.2229894 182.604442,28.1831938 C182.583421,27.9833778 182.637186,27.8769769 182.763311,27.8635721 C183.237089,27.7714138 183.574635,27.6721341 183.77595,27.5657332 C183.977265,27.4597512 184.067816,27.2733401 184.051646,27.0073377 C183.84831,23.6753964 184.184239,20.3715215 184.212537,17.0177973 C184.213345,16.8841678 184.201218,16.7735778 184.176559,16.6864464 C184.150687,16.5993149 184.100156,16.522237 184.024158,16.4552128 C183.947755,16.3886075 183.830119,16.3316369 183.672058,16.28472 C183.512785,16.2386408 183.300555,16.1946562 183.033752,16.1552795 C182.906415,16.1154838 182.842139,16.0015427 182.838501,15.8130371 C182.837693,15.7728225 182.83648,15.7125007 182.834863,15.6312339 C182.832437,15.5512237 182.843352,15.4770782 182.866394,15.4096351 C183.273067,15.4360258 183.705611,15.4586465 184.162814,15.477916 C184.620018,15.4971854 185.026286,15.5068202 185.381215,15.5059824 C185.559488,15.5055635 185.762015,15.5022123 185.990011,15.494672 C186.21841,15.4879696 186.456512,15.4804294 186.703507,15.4728892 C186.950906,15.4661867 187.197901,15.4552953 187.4453,15.4410527 C187.692295,15.4280667 187.91746,15.4134052 188.119988,15.4000003 C188.133732,15.4674435 188.144647,15.541589 188.152732,15.6215991 C188.160009,15.7024471 188.164051,15.7631878 188.164455,15.8034023 C188.166881,15.9923268 188.103818,16.1058491 187.977289,16.1464825 C187.43196,16.2277494 187.068542,16.3324747 186.884609,16.4602396 C186.701081,16.5884234 186.608509,16.7861449 186.606083,17.0542417 C186.572531,20.3220911 186.276218,23.545537 186.444789,26.7916035" id="Fill-19" fill="#2D4031"></path>
                <path d="M208.481172,22.383442 C208.48531,21.3411497 208.372767,20.4455474 208.142715,19.6966349 C207.913077,18.9489762 207.575033,18.3375594 207.128997,17.8640561 C206.683789,17.389717 206.127279,17.0428435 205.459466,16.8230176 C204.791654,16.6036097 204.02909,16.4945326 203.171774,16.4961853 L201.964416,16.4987118 C201.944969,19.9402822 201.799325,23.3584491 201.889939,26.7853924 C201.893249,26.9191268 201.916833,27.032801 201.958623,27.1259971 C202.000827,27.2187753 202.081097,27.2927471 202.200674,27.3462409 C202.319838,27.3997346 202.484515,27.4402729 202.694706,27.4670197 C202.90407,27.4941845 203.185428,27.5079759 203.537954,27.508404 C205.234379,27.5109013 206.47277,27.0520253 207.271745,26.1309298 C208.071134,25.2102522 208.474966,23.9602538 208.481172,22.383442 M211.200005,21.9997915 C211.200005,22.7896601 211.068428,23.5724241 210.805275,24.3480835 C210.541709,25.1245787 210.134153,25.8225049 209.585918,26.4443697 C209.037683,27.0649808 208.342562,27.5656488 207.502624,27.945538 C206.661859,28.3245914 205.668416,28.5134912 204.511123,28.5114016 C203.178808,28.5088941 201.846494,28.5063866 200.514179,28.504297 C200.176135,28.503879 199.783475,28.5130733 199.336611,28.5318797 C198.889334,28.5515219 198.465228,28.5736717 198.064706,28.6000006 C198.034915,28.546089 198.017951,28.4867443 198.012986,28.4194592 C198.008848,28.35301 198.005538,28.2999341 198.002642,28.2598138 C197.993125,28.1131239 198.009262,28.0165844 198.052707,27.9697774 C198.095738,27.9233883 198.149113,27.893716 198.214074,27.8799246 C198.587701,27.8143112 198.886024,27.7244584 199.109042,27.61162 C199.331646,27.4987817 199.437156,27.3023593 199.426811,27.022353 C199.30682,23.6840087 199.472739,20.3573663 199.506668,17.0052307 C199.509564,16.7381799 199.41564,16.5471905 199.228619,16.4335163 C199.041185,16.32026 198.720105,16.2237205 198.265794,16.1438978 C198.162354,16.1175688 198.096979,16.0736872 198.071326,16.0139247 C198.044845,15.9533263 198.032432,15.8701602 198.032432,15.7623369 C198.032432,15.7222166 198.032019,15.6687228 198.031605,15.6010198 C198.031191,15.5345705 198.043604,15.4672854 198.069257,15.4000003 C198.341927,15.4267472 198.586046,15.4430461 198.800375,15.448897 C199.01429,15.4555837 199.212483,15.4651958 199.394538,15.4781514 C199.576593,15.4915248 199.757821,15.4973757 199.939877,15.4969578 C200.121518,15.4965398 200.310194,15.4965398 200.505076,15.4965398 C201.822909,15.4940323 203.14157,15.4915248 204.459403,15.4890173 C205.562907,15.4869277 206.534421,15.6595286 207.371462,16.0059842 C208.208917,16.3524398 208.909003,16.8196743 209.472961,17.4072697 C210.037332,17.995283 210.46599,18.6831791 210.759348,19.471794 C211.052291,20.2608268 211.200005,21.1033533 211.200005,21.9997915" id="Fill-21" fill="#2D4031"></path>
                <g id="Group-26" transform="translate(127.818595, 37.260739)" fill="#2D4031">
                    <line x1="0.132990095" y1="0.525927405" x2="16.6650838" y2="0.525927405" id="Fill-24"></line>
                </g>
            </g>
        </g>
    </g>
</svg>