<?xml version="1.0" encoding="UTF-8"?>
<svg width="38px" height="40px" viewBox="0 0 38 40" version="1.1" xmlns="http://www.w3.org/2000/svg" xmlns:xlink="http://www.w3.org/1999/xlink">
    <!-- Generator: Sketch 59.1 (86144) - https://sketch.com -->
    <title>Group 3</title>
    <desc>Created with Sketch.</desc>
    <defs>
        <polygon id="path-1" points="0.0282290678 0.179173694 37.2747039 0.179173694 37.2747039 39.3198896 0.0282290678 39.3198896"></polygon>
    </defs>
    <g id="Page-1" stroke="none" stroke-width="1" fill="none" fill-rule="evenodd">
        <g id="Conact-Form" transform="translate(-827.000000, -2164.000000)">
            <g id="Map" transform="translate(0.000000, 1922.000000)">
                <g id="Marker" transform="translate(810.000000, 220.000000)">
                    <g id="Group-3" transform="translate(17.000000, 22.000000)">
                        <mask id="mask-2" fill="white">
                            <use xlink:href="#path-1"></use>
                        </mask>
                        <g id="Clip-2"></g>
                        <path d="M35.7759425,2.61943592 L32.0968175,6.5240096 L25.4055323,13.2709588 L27.0834449,13.2709588 C27.4414293,13.2709588 27.7319535,13.5641229 27.7319535,13.9256813 C27.7319535,14.2872397 27.4414293,14.5804038 27.0834449,14.5804038 L23.2687632,14.5804038 L21.6207621,15.768152 C21.3267376,15.9665917 20.9305682,15.8994818 20.7170504,15.6153085 C20.6164965,15.4740246 20.5760841,15.2980619 20.6053592,15.1269157 C20.6298613,14.9946226 20.6957304,14.8732468 20.7934204,14.7810912 C20.8516525,14.7444858 20.9035205,14.6985685 20.947115,14.645266 L25.1369644,11.6266067 L25.1369644,5.41589416 C25.1369644,5.05433577 25.4274886,4.76117164 25.7857912,4.76117164 C26.1437756,4.76117164 26.4346181,5.05433577 26.4346181,5.41589416 L26.4346181,10.3817027 L30.9296293,5.8468101 L30.3358525,2.24631794 C30.3068955,2.07549284 30.3469898,1.90017234 30.4475436,1.75953063 C30.5999654,1.54407265 30.8659876,1.44260511 31.1218271,1.50200858 C31.3773484,1.56205424 31.5717737,1.77109022 31.6153683,2.03214436 L32.0567233,4.70562138 L34.8534565,1.69466846 C34.9746939,1.56687074 35.1420715,1.49398108 35.3170861,1.49237558 C35.4921007,1.49044899 35.6610693,1.55980654 35.7848524,1.68439327 C35.9073626,1.8067323 35.9760956,1.9737042 35.9748401,2.1474192 C35.9748401,2.32562959 35.9029077,2.49613359 35.7759425,2.61943592 L35.7759425,2.61943592 Z M24.4881376,19.0966726 L24.4881376,18.3767669 L26.4346181,18.3767669 C25.9576237,19.0163977 25.2655206,19.4585521 24.4881376,19.6207075 L24.4881376,19.0966726 Z M30.1277442,18.3767669 L29.6781158,18.3767669 C29.3198132,18.3767669 29.029289,18.669931 29.029289,19.0311683 C29.029289,19.3927267 29.3198132,19.6858908 29.6781158,19.6858908 L29.9377738,19.6858908 C29.9018163,19.9039176 29.8728593,20.124192 29.8324469,20.3406133 L29.029289,20.3406133 C28.6709864,20.3406133 28.3807804,20.6337774 28.3807804,20.9953358 C28.3807804,21.3565731 28.6709864,21.6497372 29.029289,21.6497372 L29.548605,21.6497372 C27.980156,28.2094852 24.1081968,33.9729057 18.6502871,37.8713785 C11.4177294,32.7129101 7.07514001,24.3678471 6.97331334,15.4309972 L8.33588151,14.4166429 C8.55735452,15.2826491 9.33091903,15.8882433 10.2171293,15.8895277 L12.8178462,15.8895277 C12.8178462,15.9039772 12.8118002,15.9168212 12.8118002,15.9319129 L12.8118002,17.0676429 L9.56830247,17.0676429 C9.32296382,17.0676429 9.09799052,17.2079636 8.98820864,17.4298435 C8.87842675,17.6510813 8.90165596,17.9169519 9.04930464,18.1150705 L9.82796048,19.1624981 C10.5747955,20.162724 11.6936161,20.8129511 12.926037,20.9632258 C13.3034321,24.4095901 14.731233,27.6533404 17.0127869,30.2462213 C17.4286852,30.7185591 18.0246895,30.9886041 18.6512417,30.9886041 C19.2771576,30.9886041 19.87348,30.7185591 20.2896965,30.2462213 C21.2786881,29.1230142 22.1143032,27.871046 22.7733127,26.5233901 C22.8770487,26.3133909 22.8617747,26.0635752 22.7329003,25.8680254 C22.6037077,25.6727967 22.3809618,25.5620173 22.1493062,25.5780723 C21.9170141,25.5934851 21.7111333,25.7334846 21.6093066,25.9444472 C21.0012104,27.185819 20.2305098,28.3395307 19.3182064,29.3741142 C19.1451011,29.5606732 18.9032627,29.6669573 18.6499689,29.6669573 C18.3963568,29.6669573 18.1545185,29.5606732 17.9814131,29.3741142 C15.9448797,27.0567369 14.6459532,24.1751872 14.2539205,21.1032253 L18.0014603,23.9407844 L18.0014603,25.5774301 C18.0014603,25.9389885 18.2919845,26.2318315 18.6502871,26.2318315 C19.0085897,26.2318315 19.2987957,25.9389885 19.2987957,25.5774301 L19.2987957,23.6135837 C19.2987957,23.4077587 19.2026968,23.2138144 19.0391377,23.0898699 L14.1215458,19.368002 C14.1215458,19.2774518 14.1091357,19.1894705 14.1091357,19.0989203 L14.1091357,16.3371409 L14.1839146,16.2992511 L14.9218398,16.8319557 C15.5623932,17.2953027 16.4164645,17.3225962 17.0850202,16.9019554 C17.753576,16.4813147 18.104878,15.6959046 17.9747308,14.9114577 C17.953729,14.7852655 17.9203171,14.6609999 17.875768,14.5409085 C18.3855378,14.4211383 18.9153547,14.4211383 19.4248062,14.5409085 C19.3799389,14.661321 19.346527,14.7862288 19.3255252,14.9127421 C19.1960144,15.6959046 19.54668,16.4800303 20.2142812,16.900671 C20.8812459,17.3213118 21.7337261,17.2953027 22.3745977,16.8345245 L23.1166596,16.2998933 L23.1895293,16.3371409 L23.1895293,19.0966726 C23.1898475,20.5708419 22.981421,22.0376258 22.5696594,23.4520705 C22.5203371,23.6193635 22.5387932,23.7995004 22.6215274,23.9529862 C22.7045797,24.1061508 22.8442732,24.219499 23.0106962,24.2679851 C23.0702011,24.2856456 23.1319336,24.2943153 23.1939842,24.2943153 C23.4813263,24.2943153 23.7349384,24.1026187 23.8157633,23.823904 C24.0846494,22.8888614 24.2714377,21.9323051 24.3751736,20.9645102 C25.6072764,20.8132722 26.7254605,20.1624029 27.4722955,19.1624981 L28.2512696,18.1150705 C28.3982818,17.9169519 28.4221475,17.6510813 28.3120474,17.4298435 C28.2022655,17.2079636 27.9776104,17.0676429 27.7319535,17.0676429 L24.4881376,17.0676429 L24.4881376,15.9325551 C24.4881376,15.9181056 24.4840009,15.9049405 24.482728,15.8914543 L27.0834449,15.8914543 C27.9680641,15.8882433 28.7394012,15.2829702 28.960556,14.4185695 L30.3266245,15.4309972 C30.3119869,16.4158103 30.2454813,17.399339 30.1277442,18.3767669 L30.1277442,18.3767669 Z M12.8118002,19.0966726 L12.8118002,19.6207075 C12.0347354,19.4585521 11.3429505,19.0163977 10.8656379,18.3767669 L12.8118002,18.3767669 L12.8118002,19.0966726 Z M33.9204696,0.787240403 L32.9047485,1.88122745 L32.8948841,1.82214509 C32.7430987,0.874579551 31.9319856,0.178435164 30.9808608,0.17907692 C30.8717154,0.17907692 30.7635245,0.188389258 30.6562883,0.207334147 C30.1465185,0.292425596 29.6911624,0.579167726 29.3910919,1.00366167 C29.0907032,1.42847672 28.9704204,1.95604371 29.0560185,2.4701245 L29.5403316,5.40208686 L27.7319535,7.22336498 L27.7319535,5.41589416 C27.7319535,4.3315401 26.8606991,3.45204772 25.7857912,3.45204772 C24.7112016,3.45204772 23.8396289,4.3315401 23.8396289,5.41589416 L23.8396289,8.98363414 L19.035001,5.41589416 C18.8062092,5.24603236 18.4940468,5.24603236 18.2655732,5.41589416 L16.3194109,6.863091 C16.1281677,6.99987952 16.02475,7.23075028 16.0495702,7.46611644 C16.0743905,7.7011615 16.2229938,7.90473878 16.4381026,7.99849992 C16.6535297,8.09193997 16.9023686,8.06079329 17.0888387,7.91694057 L18.6502871,6.75263266 L23.8396289,10.6145001 L23.8396289,10.9561503 L20.3507925,13.4671508 C19.2571104,13.0404091 18.0444184,13.0404091 16.9507363,13.4671508 L13.4606271,10.9526182 L13.4606271,10.6116102 L15.5366184,9.06808339 C15.7319983,8.93257927 15.8385981,8.70042411 15.8150507,8.46248915 C15.791185,8.22487529 15.6406725,8.01840811 15.4223816,7.92561027 C15.2040906,7.83217022 14.9530242,7.8665279 14.7671906,8.01487601 L13.4606271,8.98556074 L13.4606271,5.41589416 C13.4606271,4.3315401 12.5893726,3.45204772 11.5144648,3.45204772 C10.4395569,3.45204772 9.56830247,4.3315401 9.56830247,5.41589416 L9.56830247,7.22240168 L7.75960618,5.39823367 L8.2442375,2.46627131 C8.40716018,1.40343094 7.69214601,0.406416029 6.64078561,0.229811134 C5.58974341,0.0528851386 4.59311485,0.762194618 4.40537192,1.82086069 L4.39582567,1.88122745 L3.34987481,0.755130422 C2.57981059,0.0137109619 1.36839139,0.0137109619 0.598327168,0.755130422 C-0.152962756,1.51292597 -0.162827215,2.73888504 0.575416167,3.50920349 L4.30036316,7.45969444 L5.40295511,8.57230528 C5.65784,8.82051544 6.06228282,8.81666224 6.31239458,8.56459889 C6.56250635,8.31221444 6.56632485,7.90377548 6.32034979,7.64689563 L5.22857693,6.54584439 L1.50394814,2.59503233 C1.25956413,2.33751028 1.26497367,1.93003462 1.51540365,1.67893457 C1.76710645,1.43907302 2.15850273,1.43265102 2.41752433,1.66384288 L5.24353272,4.70883238 L5.68520592,2.03631866 C5.73484642,1.72099865 6.00341427,1.48884349 6.31971338,1.48788019 C6.35980763,1.48820129 6.39926547,1.49173338 6.43840509,1.49943978 C6.78843428,1.56237534 7.02295384,1.89760354 6.96472171,2.25145553 L6.37094492,5.8468101 L10.8656379,10.3829871 L10.8656379,5.41589416 C10.8656379,5.05433577 11.1561622,4.76117164 11.5144648,4.76117164 C11.8724492,4.76117164 12.1629734,5.05433577 12.1629734,5.41589416 L12.1629734,11.6259645 L16.3795523,14.6632476 C16.4110549,14.6982474 16.4457396,14.729073 16.4842428,14.7557243 C16.5952976,14.851091 16.6703947,14.9817786 16.696806,15.1269157 C16.7260812,15.2977408 16.6859869,15.4737035 16.5854331,15.6146663 C16.3722335,15.9036561 15.971291,15.9710871 15.6769482,15.7668676 L14.031811,14.5804038 L10.2171293,14.5804038 C9.85882669,14.5804038 9.56830247,14.2872397 9.56830247,13.9256813 C9.56830247,13.5641229 9.85882669,13.2709588 10.2171293,13.2709588 L11.8937691,13.2709588 L8.47143827,9.81753034 C8.31074305,9.63675115 8.06444978,9.5609716 7.83120306,9.61973286 C7.59827454,9.67881523 7.41625937,9.86280542 7.35866365,10.0984927 C7.30138615,10.3338588 7.37807436,10.5823901 7.55754387,10.7439033 L9.05980552,12.2598155 L5.94581856,14.5771928 C5.77780455,14.6992107 5.67756892,14.8947605 5.67597788,15.1037965 C5.67406863,24.7444972 10.3899164,33.7641908 18.2773469,39.204906 C18.3855378,39.2810067 18.5137757,39.3211441 18.645514,39.3198896 C18.7823436,39.3198896 18.9159911,39.278759 19.0283186,39.2007317 C25.0230458,35.0604708 29.2536259,28.7948502 30.8774431,21.6497372 L30.9754513,21.6497372 C31.3337539,21.6497372 31.6239599,21.3565731 31.6239599,20.9953358 C31.6220507,20.7037772 31.4269889,20.4504294 31.1479202,20.3759343 C31.1896055,20.1473112 31.2172896,19.9177248 31.2532472,19.6858908 L31.6239599,19.6858908 C31.9822625,19.6858908 32.2727867,19.3927267 32.2727867,19.0311683 C32.2727867,18.669931 31.9822625,18.3767669 31.6239599,18.3767669 L31.4346259,18.3767669 C31.558409,17.2901651 31.6217325,16.1974625 31.6239599,15.1037965 C31.6230053,14.8970082 31.5253153,14.7030639 31.3601652,14.5804038 L28.2461782,12.2630265 L33.0253495,7.44139175 L36.7047927,3.53649697 C37.4646743,2.76971063 37.4646743,1.52673326 36.7047927,0.759946919 C35.9255004,-0.00138072918 34.6848061,0.0108210636 33.9204696,0.787240403 L33.9204696,0.787240403 Z" id="Fill-1" fill="#F9F9F9" mask="url(#mask-2)"></path>
                    </g>
                </g>
            </g>
        </g>
    </g>
</svg>