<?xml version="1.0" encoding="UTF-8"?>
<svg width="142px" height="110px" viewBox="0 0 142 110" version="1.1" xmlns="http://www.w3.org/2000/svg" xmlns:xlink="http://www.w3.org/1999/xlink">
    <!-- Generator: Sketch 58 (84663) - https://sketch.com -->
    <title>“</title>
    <desc>Created with Sketch.</desc>
    <g id="Page-1" stroke="none" stroke-width="1" fill="none" fill-rule="evenodd" opacity="0.0538736979">
        <g id="About" transform="translate(-157.000000, -2513.000000)" fill="#F9FBF9" fill-rule="nonzero">
            <path d="M282.975626,2513 L286.093541,2517.24437 C267.039617,2532.45338 261.496657,2556.50482 267.386052,2557.21222 C275.354056,2557.91961 282.975626,2560.3955 289.211456,2566.40836 C302.029551,2579.14148 302.375986,2600.36334 289.557891,2613.45016 C277.086231,2626.18328 256.646567,2626.18328 244.174907,2613.45016 C224.428113,2593.28939 241.056992,2558.27331 252.142912,2540.94212 C257.339437,2533.51447 267.039617,2522.19614 282.975626,2513 Z M205.118777,2513 L208.234352,2517.24437 C188.848552,2532.45338 183.655927,2556.50482 189.540902,2557.21222 C197.156752,2557.91961 205.118777,2560.3955 211.349927,2566.40836 C224.158402,2579.14148 224.158402,2600.36334 211.696102,2613.45016 C199.233802,2626.18328 178.463302,2626.18328 166.001002,2613.45016 C146.615201,2593.28939 162.885427,2558.27331 174.309202,2540.94212 C179.155652,2533.51447 188.848552,2522.19614 205.118777,2513 Z" id="“"></path>
        </g>
    </g>
</svg>