<?xml version="1.0" encoding="UTF-8"?>
<svg width="164px" height="164px" viewBox="0 0 164 164" version="1.1" xmlns="http://www.w3.org/2000/svg" xmlns:xlink="http://www.w3.org/1999/xlink">
    <!-- Generator: Sketch 58 (84663) - https://sketch.com -->
    <title>Group 7</title>
    <desc>Created with Sketch.</desc>
    <defs>
        <polygon id="path-1" points="0.324788564 0.740320795 62.2857553 0.740320795 62.2857553 65.8524317 0.324788564 65.8524317"></polygon>
    </defs>
    <g id="Page-1" stroke="none" stroke-width="1" fill="none" fill-rule="evenodd">
        <g id="Home" transform="translate(-1304.000000, -1716.000000)">
            <g id="We-live-for-food" transform="translate(255.000000, 1181.000000)">
                <g id="Group-7" transform="translate(1130.716238, 617.498716) rotate(12.000000) translate(-1130.716238, -617.498716) translate(1048.716238, 535.498716)">
                    <g id="Group-73" transform="translate(-0.000000, -0.000000)" fill="#C2735D">
                        <path d="M90.2842284,6.15365835 L89.5702284,4.09265835 L89.5582284,4.09165835 L88.4682284,5.97465835 L90.2842284,6.15365835 Z M85.1222284,8.22765835 L89.6532284,0.554658351 C89.6962284,0.486658351 89.7852284,0.434658351 89.8682284,0.443658351 L89.9882284,0.454658351 C90.0722284,0.463658351 90.1492284,0.530658351 90.1782284,0.606658351 L93.1272284,9.01465835 C93.1832284,9.17665835 93.0732284,9.32265835 92.8932284,9.30565835 L91.5672284,9.17465835 C91.3522284,9.15365835 91.2632284,9.07265835 91.1792284,8.83565835 L90.8412284,7.84865835 L87.5922284,7.52865835 L87.0672284,8.44265835 C86.9932284,8.58065835 86.8482284,8.71065835 86.6092284,8.68765835 L85.2952284,8.55765835 C85.1162284,8.54065835 85.0352284,8.37565835 85.1222284,8.22765835 L85.1222284,8.22765835 Z" id="Fill-1"></path>
                        <path d="M100.804228,2.39585835 C100.845228,2.29485835 100.972228,2.24385835 101.064228,2.26985835 L101.249228,2.32285835 C101.307228,2.33885835 101.398228,2.41485835 101.412228,2.49385835 L102.675228,8.24485835 L102.698228,8.25085835 L106.795228,4.02285835 C106.849228,3.96285835 106.967228,3.94685835 107.024228,3.96285835 L107.209228,4.01585835 C107.302228,4.04185835 107.383228,4.15185835 107.365228,4.25885835 L106.465228,12.3918584 C106.446228,12.5488584 106.312228,12.6238584 106.174228,12.5838584 L104.811228,12.1968584 C104.707228,12.1668584 104.629228,12.0448584 104.644228,11.9498584 L105.137228,8.23285835 L105.115228,8.22685835 L102.111228,11.4178584 C102.057228,11.4768584 101.936228,11.5048584 101.879228,11.4888584 L101.671228,11.4298584 C101.601228,11.4098584 101.525228,11.3258584 101.511228,11.2468584 L100.621228,6.94985835 L100.598228,6.94385835 L99.0762284,10.3688584 C99.0382284,10.4578584 98.9202284,10.5238584 98.8042284,10.4908584 L97.4412284,10.1038584 C97.3032284,10.0638584 97.2282284,9.93085835 97.2942284,9.78785835 L100.804228,2.39585835 Z" id="Fill-3"></path>
                        <path d="M115.972728,13.7742584 L116.020728,11.5942584 L116.010728,11.5892584 L114.332728,12.9742584 L115.972728,13.7742584 Z M110.411728,13.9192584 L117.331728,8.30725835 C117.395728,8.25825835 117.497728,8.24125835 117.572728,8.27725835 L117.680728,8.33025835 C117.756728,8.36725835 117.805728,8.45825835 117.805728,8.53825835 L117.639728,17.4462584 C117.636728,17.6182584 117.481728,17.7162584 117.319728,17.6372584 L116.121728,17.0532584 C115.928728,16.9582584 115.873728,16.8512584 115.876728,16.5992584 L115.903728,15.5572584 L112.969728,14.1262584 L112.159728,14.7992584 C112.042728,14.9022584 111.860728,14.9742584 111.645728,14.8682584 L110.458728,14.2892584 C110.296728,14.2102584 110.278728,14.0282584 110.411728,13.9192584 L110.411728,13.9192584 Z" id="Fill-5"></path>
                        <path d="M121.179228,19.4675584 L127.319228,16.2115584 L127.332228,16.1915584 L125.180228,14.7015584 C125.081228,14.6335584 125.054228,14.4825584 125.122228,14.3845584 L125.867228,13.3075584 C125.936228,13.2095584 126.086228,13.1815584 126.185228,13.2505584 L130.381228,16.1555584 C130.480228,16.2235584 130.507228,16.3745584 130.439228,16.4725584 L130.350228,16.6015584 L124.264228,19.9675584 L124.251228,19.9885584 L126.403228,21.4785584 C126.512228,21.5535584 126.529228,21.6965584 126.461228,21.7955584 L125.716228,22.8715584 C125.647228,22.9705584 125.507228,23.0045584 125.398228,22.9295584 L121.114228,19.9625584 C121.015228,19.8945584 120.988228,19.7435584 121.056228,19.6455584 L121.179228,19.4675584 Z" id="Fill-7"></path>
                        <path d="M135.241728,20.4231584 C135.321728,20.3341584 135.473728,20.3251584 135.563728,20.4051584 L136.636728,21.3651584 C136.725728,21.4441584 136.734728,21.5971584 136.654728,21.6871584 L131.361728,27.6061584 C131.281728,27.6951584 131.128728,27.7041584 131.039728,27.6241584 L129.966728,26.6641584 C129.877728,26.5851584 129.868728,26.4321584 129.948728,26.3421584 L135.241728,20.4231584 Z" id="Fill-9"></path>
                        <path d="M141.771528,26.4885584 C141.863528,26.4105584 142.006528,26.4315584 142.083528,26.5235584 L142.277528,26.7525584 L141.842528,33.3825584 L141.850528,33.3915584 L145.105528,30.6455584 C145.197528,30.5675584 145.341528,30.5715584 145.426528,30.6725584 L146.355528,31.7725584 C146.432528,31.8645584 146.419528,32.0165584 146.328528,32.0935584 L140.156528,37.3005584 C140.064528,37.3775584 139.921528,37.3575584 139.844528,37.2655584 L139.720528,37.1185584 C139.697528,37.0915584 139.662528,36.9945584 139.665528,36.9605584 L140.250528,30.2675584 L140.242528,30.2585584 L136.822528,33.1435584 C136.730528,33.2205584 136.585528,33.2175584 136.500528,33.1165584 L135.580528,32.0255584 C135.502528,31.9335584 135.516528,31.7815584 135.607528,31.7035584 L141.771528,26.4885584 Z" id="Fill-11"></path>
                        <path d="M152.603028,41.0217584 C153.112028,41.8927584 153.306028,43.0577584 153.107028,44.1197584 C153.089028,44.2547584 152.971028,44.3377584 152.839028,44.3037584 L151.491028,43.9937584 C151.370028,43.9537584 151.303028,43.8397584 151.316028,43.7207584 C151.449028,43.1147584 151.317028,42.5797584 151.020028,42.0727584 C150.360028,40.9427584 148.874028,40.5887584 147.734028,41.2547584 C146.605028,41.9157584 146.211028,43.3827584 146.872028,44.5117584 C147.047028,44.8127584 147.270028,45.0987584 147.577028,45.3367584 L148.178028,44.9857584 L147.796028,44.3327584 C147.729028,44.2187584 147.764028,44.0877584 147.867028,44.0267584 L148.893028,43.4277584 C149.007028,43.3607584 149.138028,43.3957584 149.205028,43.5087584 L150.423028,45.5917584 C150.483028,45.6947584 150.438028,45.8327584 150.335028,45.8937584 L147.554028,47.5327584 C147.502028,47.5637584 147.395028,47.5707584 147.339028,47.5467584 C147.339028,47.5467584 146.042028,46.8737584 145.164028,45.3717584 C143.958028,43.3097584 144.626028,40.6947584 146.698028,39.4827584 C148.770028,38.2717584 151.397028,38.9597584 152.603028,41.0217584" id="Fill-13"></path>
                        <path d="M160.610928,60.2991584 C160.934928,61.4541584 160.815928,62.4091584 160.319928,63.3951584 C160.256928,63.5251584 160.117928,63.5641584 159.999928,63.4971584 L158.811928,62.8591584 C158.707928,62.8001584 158.672928,62.6731584 158.730928,62.5701584 C158.991928,62.0351584 159.041928,61.4111584 158.882928,60.8451584 C158.517928,59.5401584 157.162928,58.8851584 155.869928,59.2481584 C154.587928,59.6071584 153.796928,60.8751584 154.161928,62.1801584 C154.313928,62.7231584 154.674928,63.2571584 155.149928,63.5721584 C155.241928,63.6341584 155.283928,63.7841584 155.222928,63.8761584 L154.515928,65.0461584 C154.457928,65.1491584 154.303928,65.1791584 154.200928,65.1211584 C153.218928,64.5491584 152.582928,63.6561584 152.294928,62.6281584 C151.647928,60.3181584 152.963928,57.9441584 155.273928,57.2971584 C157.583928,56.6501584 159.963928,57.9891584 160.610928,60.2991584" id="Fill-15"></path>
                        <path d="M162.260828,69.5056584 C162.380828,69.4926584 162.498828,69.5886584 162.511828,69.7076584 L162.669828,71.1756584 C162.683828,71.3066584 162.586828,71.4136584 162.467828,71.4266584 L157.634828,71.9456584 C156.799828,72.0356584 156.197828,72.7276584 156.288828,73.5746584 C156.381828,74.4336584 157.116828,74.9946584 157.952828,74.9046584 L162.784828,74.3856584 C162.904828,74.3726584 163.021828,74.4566584 163.035828,74.5886584 L163.193828,76.0556584 C163.206828,76.1746584 163.110828,76.2946584 162.991828,76.3066584 L158.063828,76.8366584 C156.249828,77.0306584 154.581828,75.6656584 154.379828,73.7796584 C154.178828,71.9066584 155.518828,70.2296584 157.332828,70.0346584 L162.260828,69.5056584 Z" id="Fill-17"></path>
                        <path d="M163.086428,83.1804584 C163.206428,83.1834584 163.311428,83.2954584 163.307428,83.4144584 L163.265428,84.8544584 C163.262428,84.9734584 163.150428,85.0784584 163.031428,85.0754584 L155.091428,84.8434584 C154.971428,84.8394584 154.866428,84.7284584 154.870428,84.6084584 L154.912428,83.1694584 C154.916428,83.0494584 155.026428,82.9444584 155.147428,82.9484584 L163.086428,83.1804584 Z" id="Fill-19"></path>
                        <path d="M155.606928,90.3953584 L156.504928,91.1043584 C156.644928,91.2233584 156.585928,91.4443584 156.513928,91.5193584 C156.482928,91.5623584 155.722928,92.3193584 155.601928,93.1013584 C155.528928,93.5763584 155.771928,93.9653584 156.186928,94.0293584 C156.684928,94.1063584 157.127928,93.7493584 157.572928,92.9933584 C158.132928,92.0363584 159.125928,90.8783584 160.547928,91.0983584 C161.721928,91.2793584 162.766928,92.3753584 162.484928,94.2013584 C162.293928,95.4343584 161.519928,96.2853584 161.203928,96.6013584 C161.098928,96.7303584 160.888928,96.6733584 160.813928,96.6133584 L159.993928,95.8683584 C159.875928,95.7643584 159.801928,95.5343584 159.901928,95.4403584 C159.977928,95.3433584 160.762928,94.5783584 160.874928,93.8553584 C160.940928,93.4283584 160.705928,93.0643584 160.385928,93.0153584 C159.946928,92.9473584 159.559928,93.2513584 159.035928,94.1293584 C158.525928,94.9983584 157.575928,96.3563584 155.962928,96.1073584 C154.741928,95.9183584 153.671928,94.6723584 153.940928,92.9303584 C154.178928,91.3893584 154.950928,90.6343584 155.265928,90.4033584 C155.402928,90.3033584 155.455928,90.2743584 155.606928,90.3953584" id="Fill-21"></path>
                        <path d="M160.228528,103.160458 C160.343528,103.193458 160.417528,103.327458 160.385528,103.442458 L159.989528,104.827458 C159.956528,104.942458 159.823528,105.016458 159.707528,104.983458 L152.071528,102.801458 C151.956528,102.768458 151.881528,102.635458 151.914528,102.519458 L152.310528,101.135458 C152.343528,101.019458 152.476528,100.945458 152.591528,100.978458 L160.228528,103.160458 Z" id="Fill-23"></path>
                        <path d="M157.597728,111.685358 C157.706728,111.734358 157.750728,111.872358 157.701728,111.981358 L157.577728,112.255358 L151.416728,114.733358 L151.411728,114.744358 L155.295728,116.488358 C155.405728,116.538358 155.464728,116.669358 155.409728,116.789358 L154.820728,118.102358 C154.771728,118.212358 154.628728,118.266358 154.519728,118.217358 L147.156728,114.911358 C147.046728,114.861358 147.003728,114.724358 147.052728,114.614358 L147.131728,114.439358 C147.145728,114.406358 147.218728,114.333358 147.249728,114.321358 L153.534728,111.951358 L153.538728,111.939358 L149.458728,110.107358 C149.348728,110.058358 149.289728,109.926358 149.343728,109.806358 L149.928728,108.504358 C149.977728,108.394358 150.119728,108.340358 150.229728,108.389358 L157.597728,111.685358 Z" id="Fill-25"></path>
                        <path d="M150.994228,124.443158 C151.094228,124.509158 151.131228,124.649158 151.058228,124.759158 L148.317228,128.903158 C148.244228,129.013158 148.101228,129.034158 148.001228,128.967158 L146.910228,128.246158 C146.809228,128.179158 146.772228,128.040158 146.846228,127.930158 L148.680228,125.157158 L147.438228,124.336158 L145.929228,126.618158 C145.862228,126.718158 145.713228,126.749158 145.613228,126.682158 L144.521228,125.961158 C144.411228,125.888158 144.391228,125.745158 144.457228,125.645158 L145.967228,123.362158 L144.616228,122.468158 L142.782228,125.241158 C142.708228,125.351158 142.565228,125.372158 142.465228,125.305158 L141.374228,124.584158 C141.274228,124.517158 141.237228,124.378158 141.310228,124.268158 L144.052228,120.123158 C144.124228,120.013158 144.267228,119.993158 144.368228,120.059158 L150.994228,124.443158 Z" id="Fill-27"></path>
                        <path d="M132.533728,138.269858 L134.544728,139.110858 L134.553728,139.102858 L133.876728,137.035858 L132.533728,138.269858 Z M134.427728,133.042858 L137.125728,141.529858 C137.147728,141.606858 137.126728,141.707858 137.064728,141.764858 L136.975728,141.845858 C136.914728,141.902858 136.811728,141.915858 136.736728,141.886858 L128.508728,138.481858 C128.349728,138.415858 128.314728,138.235858 128.447728,138.113858 L129.428728,137.212858 C129.586728,137.066858 129.706728,137.054858 129.939728,137.149858 L130.899728,137.555858 L133.302728,135.347858 L132.970728,134.348858 C132.917728,134.201858 132.917728,134.005858 133.094728,133.843858 L134.066728,132.950858 C134.198728,132.829858 134.374728,132.878858 134.427728,133.042858 L134.427728,133.042858 Z" id="Fill-29"></path>
                        <path d="M129.044928,148.089158 C129.109928,148.190158 129.070928,148.329158 128.970928,148.394158 L128.718928,148.557158 L122.198928,147.289158 L122.188928,147.296158 L124.501928,150.871158 C124.566928,150.972158 124.544928,151.114158 124.433928,151.186158 L123.225928,151.968158 C123.124928,152.033158 122.975928,152.001158 122.910928,151.901158 L118.524928,145.123158 C118.460928,145.022158 118.498928,144.883158 118.599928,144.818158 L118.760928,144.714158 C118.790928,144.694158 118.890928,144.672158 118.923928,144.679158 L125.488928,146.104158 L125.498928,146.097158 L123.068928,142.340158 C123.002928,142.240158 123.024928,142.097158 123.135928,142.026158 L124.334928,141.250158 C124.435928,141.185158 124.584928,141.217158 124.649928,141.318158 L129.044928,148.089158 Z" id="Fill-31"></path>
                        <path d="M111.238328,150.559858 C109.988328,151.087858 109.497328,152.454858 110.029328,153.715858 C110.556328,154.965858 111.879328,155.567858 113.129328,155.039858 L114.191328,154.591858 L112.300328,150.111858 L111.238328,150.559858 Z M116.515328,155.279858 C116.561328,155.390858 116.515328,155.526858 116.404328,155.573858 L113.705328,156.712858 C111.570328,157.614858 109.089328,156.615858 108.193328,154.491858 C107.287328,152.344858 108.301328,149.870858 110.437328,148.969858 L113.136328,147.830858 C113.246328,147.783858 113.377328,147.845858 113.424328,147.955858 L116.515328,155.279858 Z" id="Fill-33"></path>
                        <path d="M96.9800284,161.638458 C97.0480284,161.799458 96.9680284,161.930458 96.8010284,161.950458 L95.4090284,162.123458 C95.3130284,162.136458 95.2080284,162.064458 95.1740284,161.984458 L93.6480284,158.076458 L93.6010284,158.082458 L92.2770284,162.501458 C92.2510284,162.577458 92.1870284,162.645458 92.0910284,162.657458 L91.8770284,162.684458 C91.7700284,162.697458 91.6910284,162.646458 91.6580284,162.578458 L89.2930284,158.618458 L89.2450284,158.624458 L88.7230284,162.786458 C88.7090284,162.872458 88.6250284,162.967458 88.5290284,162.979458 L87.1370284,163.152458 C86.9700284,163.173458 86.8600284,163.066458 86.8870284,162.893458 L88.1420284,154.616458 C88.1540284,154.517458 88.2400284,154.434458 88.3350284,154.422458 L88.5260284,154.399458 C88.6090284,154.388458 88.7000284,154.437458 88.7450284,154.504458 L91.5280284,159.101458 L91.5640284,159.097458 L93.1250284,153.960458 C93.1510284,153.884458 93.2270284,153.814458 93.3110284,153.804458 L93.5010284,153.780458 C93.5960284,153.768458 93.7000284,153.827458 93.7360284,153.920458 L96.9800284,161.638458 Z" id="Fill-35"></path>
                        <path d="M77.1055284,156.435858 C75.7885284,156.353858 74.6425284,157.364858 74.5615284,158.669858 C74.4795284,159.987858 75.4885284,161.144858 76.8065284,161.227858 C78.1115284,161.308858 79.2585284,160.285858 79.3405284,158.968858 C79.4215284,157.662858 78.4115284,156.517858 77.1055284,156.435858 M76.6865284,163.143858 C74.2915284,162.994858 72.4955284,160.945858 72.6445284,158.550858 C72.7935284,156.154858 74.8295284,154.369858 77.2255284,154.518858 C79.6205284,154.668858 81.4065284,156.692858 81.2565284,159.087858 C81.1075284,161.483858 79.0825284,163.292858 76.6865284,163.143858" id="Fill-37"></path>
                        <path d="M65.7896284,161.594558 C65.7606284,161.711558 65.6326284,161.778558 65.5166284,161.749558 L65.2256284,161.677558 L61.6756284,156.056558 L61.6636284,156.053558 L60.6446284,160.192558 C60.6166284,160.309558 60.4976284,160.391558 60.3696284,160.359558 L58.9706284,160.015558 C58.8536284,159.986558 58.7746284,159.855558 58.8036284,159.739558 L60.7336284,151.893558 C60.7626284,151.777558 60.8906284,151.709558 61.0066284,151.738558 L61.1936284,151.784558 C61.2286284,151.792558 61.3126284,151.850558 61.3306284,151.880558 L64.7966284,157.640558 L64.8086284,157.643558 L65.8786284,153.295558 C65.9076284,153.178558 66.0256284,153.096558 66.1546284,153.128558 L67.5416284,153.469558 C67.6586284,153.498558 67.7376284,153.629558 67.7086284,153.745558 L65.7896284,161.594558 Z" id="Fill-39"></path>
                        <path d="M51.7935284,150.296658 C50.5535284,149.746658 49.2215284,150.323658 48.6665284,151.574658 C48.1165284,152.814658 48.5825284,154.189658 49.8225284,154.739658 L50.8755284,155.207658 L52.8465284,150.763658 L51.7935284,150.296658 Z M51.9635284,157.370658 C51.9155284,157.480658 51.7835284,157.540658 51.6735284,157.491658 L48.9975284,156.303658 C46.8795284,155.364658 45.9105284,152.872658 46.8445284,150.766658 C47.7895284,148.637658 50.2865284,147.684658 52.4045284,148.624658 L55.0815284,149.811658 C55.1905284,149.860658 55.2345284,149.998658 55.1865284,150.108658 L51.9635284,157.370658 Z" id="Fill-41"></path>
                        <path d="M39.5781284,151.171158 C39.5131284,151.272158 39.3731284,151.310158 39.2631284,151.238158 L35.0991284,148.528158 C34.9891284,148.456158 34.9681284,148.313158 35.0331284,148.213158 L35.7461284,147.116158 C35.8121284,147.016158 35.9521284,146.978158 36.0621284,147.050158 L38.8481284,148.863158 L39.6591284,147.616158 L37.3671284,146.124158 C37.2661284,146.058158 37.2341284,145.909158 37.3001284,145.808158 L38.0131284,144.712158 C38.0851284,144.602158 38.2281284,144.580158 38.3281284,144.646158 L40.6211284,146.138158 L41.5051284,144.780158 L38.7201284,142.967158 C38.6091284,142.895158 38.5881284,142.752158 38.6531284,142.651158 L39.3671284,141.556158 C39.4321284,141.455158 39.5711284,141.417158 39.6821284,141.489158 L43.8451284,144.199158 C43.9551284,144.271158 43.9771284,144.414158 43.9111284,144.514158 L39.5781284,151.171158 Z" id="Fill-43"></path>
                        <path d="M29.2803284,139.219058 C28.9143284,138.890058 28.2973284,138.949058 27.9613284,139.324058 C27.6243284,139.699058 27.6643284,140.283058 28.0303284,140.612058 L29.3513284,141.797058 L30.6013284,140.405058 L29.2803284,139.219058 Z M29.7593284,144.162058 C29.6793284,144.251058 29.5363284,144.267058 29.4383284,144.179058 L26.7693284,141.784058 C25.6973284,140.823058 25.6003284,139.172058 26.5533284,138.109058 C27.2903284,137.288058 28.4273284,137.116058 29.4853284,137.501058 L30.2963284,134.136058 C30.3383284,133.964058 30.5293284,133.877058 30.6803284,134.013058 L31.8673284,135.079058 C31.9393284,135.143058 31.9523284,135.236058 31.9383284,135.287058 L31.0033284,138.718058 L31.6183284,139.271058 L33.6613284,136.995058 C33.7413284,136.906058 33.8943284,136.897058 33.9833284,136.977058 L35.0453284,137.930058 C35.1443284,138.019058 35.1433284,138.163058 35.0633284,138.252058 L29.7593284,144.162058 Z" id="Fill-45"></path>
                        <path d="M20.4395284,135.009558 C20.3465284,135.085558 20.2025284,135.080558 20.1185284,134.978558 L16.9665284,131.137558 C16.8825284,131.035558 16.9055284,130.892558 16.9985284,130.816558 L18.0095284,129.986558 C18.1025284,129.910558 18.2465284,129.915558 18.3305284,130.017558 L20.4395284,132.587558 L21.7745284,131.491558 L20.0395284,129.376558 C19.9625284,129.283558 19.9785284,129.131558 20.0705284,129.055558 L21.0825284,128.225558 C21.1745284,128.149558 21.3265284,128.164558 21.4025284,128.257558 L23.1385284,130.372558 L25.3935284,128.521558 C25.4855284,128.445558 25.6385284,128.460558 25.7145284,128.553558 L26.6125284,129.648558 C26.6965284,129.750558 26.6735284,129.892558 26.5815284,129.968558 L20.4395284,135.009558 Z" id="Fill-47"></path>
                        <path d="M13.4024284,125.696058 C13.2984284,125.757058 13.1514284,125.718058 13.0904284,125.614058 L12.3434284,124.342058 C12.2774284,124.228058 12.3214284,124.091058 12.4244284,124.030058 L16.6144284,121.571058 C17.3394284,121.146058 17.6024284,120.267058 17.1714284,119.533058 C16.7344284,118.788058 15.8324284,118.580058 15.1084284,119.005058 L10.9184284,121.465058 C10.8154284,121.525058 10.6734284,121.497058 10.6064284,121.384058 L9.85942841,120.111058 C9.79842841,120.008058 9.83742841,119.860058 9.94142841,119.799058 L14.2134284,117.291058 C15.7864284,116.368058 17.8664284,116.927058 18.8264284,118.561058 C19.7794284,120.186058 19.2474284,122.265058 17.6744284,123.188058 L13.4024284,125.696058 Z" id="Fill-49"></path>
                        <path d="M6.98102841,113.491958 C6.87002841,113.535958 6.73302841,113.486958 6.68502841,113.363958 L6.15802841,112.036958 C6.11402841,111.924958 6.17502841,111.784958 6.28602841,111.740958 L12.2430284,109.377958 L11.1890284,106.722958 C11.1410284,106.599958 11.2060284,106.470958 11.3170284,106.426958 L12.5330284,105.944958 C12.6450284,105.900958 12.7800284,105.949958 12.8290284,106.072958 L14.4930284,110.265958 C14.5420284,110.388958 14.4770284,110.517958 14.3650284,110.562958 L6.98102841,113.491958 Z" id="Fill-51"></path>
                        <path d="M6.44142841,91.3372584 L4.60542841,92.5122584 L4.60742841,92.5242584 L6.69142841,93.1442584 L6.44142841,91.3372584 Z M9.66242841,95.8702584 L1.14742841,93.2582584 C1.07042841,93.2332584 0.999428406,93.1582584 0.988428406,93.0742584 L0.971428406,92.9562584 C0.960428406,92.8722584 1.00742841,92.7812584 1.07442841,92.7352584 L8.55842841,87.9062584 C8.70342841,87.8132584 8.87042841,87.8872584 8.89542841,88.0652584 L9.07842841,89.3842584 C9.10842841,89.5982584 9.04942841,89.7032584 8.83842841,89.8412584 L7.95942841,90.4002584 L8.40742841,93.6332584 L9.41742841,93.9292584 C9.56842841,93.9692584 9.72942841,94.0802584 9.76242841,94.3172584 L9.94342841,95.6252584 C9.96842841,95.8032584 9.82642841,95.9202584 9.66242841,95.8702584 L9.66242841,95.8702584 Z" id="Fill-53"></path>
                        <path d="M2.06892841,82.3113584 L2.04092841,84.0263584 C2.03892841,84.1583584 1.92892841,84.2523584 1.80892841,84.2503897 L0.501928406,84.2283584 C0.381928406,84.2273584 0.275928406,84.1293584 0.277900553,83.9973584 L0.365928406,78.6723584 C0.367928406,78.5403584 0.477928406,78.4463584 0.596928406,78.448327 L1.90492841,78.4703584 C2.02492841,78.4723584 2.13092841,78.5693584 2.12892841,78.7013584 L2.10092841,80.4163584 L8.50492841,80.5223584 C8.62492841,80.5243584 8.73092841,80.6343584 8.72895626,80.7543584 L8.70492841,82.1933584 C8.70292841,82.3133584 8.59292841,82.4193584 8.47392841,82.4173584 L2.06892841,82.3113584 Z" id="Fill-55"></path>
                        <path d="M0.942428406,71.5115584 C0.838428406,71.4815584 0.773428406,71.3615584 0.788428406,71.2665584 L0.820428406,71.0765584 C0.830428406,71.0175584 0.895428406,70.9195584 0.972428406,70.8955584 L6.54742841,69.0055584 L6.55142841,68.9815584 L1.89742841,65.3775584 C1.83242841,65.3305584 1.80242841,65.2165584 1.81242841,65.1565584 L1.84442841,64.9675584 C1.85942841,64.8725584 1.96042841,64.7805584 2.06942841,64.7855584 L10.2504284,64.7815584 C10.4084284,64.7825584 10.4974284,64.9075584 10.4734284,65.0495584 L10.2394284,66.4465584 C10.2214284,66.5535584 10.1094284,66.6435584 10.0114284,66.6395584 L6.26342841,66.5595584 L6.25942841,66.5835584 L9.76342841,69.2155584 C9.82842841,69.2625584 9.86942841,69.3795584 9.85942841,69.4385584 L9.82342841,69.6515584 C9.81242841,69.7225584 9.73642841,69.8075584 9.66042841,69.8315584 L5.48842841,71.1895584 L5.48442841,71.2135584 L9.05542841,72.3465584 C9.14842841,72.3745584 9.22742841,72.4855584 9.20742841,72.6035584 L8.97342841,74.0015584 C8.94942841,74.1435584 8.82542841,74.2315584 8.67542841,74.1825584 L0.942428406,71.5115584 Z" id="Fill-57"></path>
                        <path d="M11.5479284,55.6858584 C12.0059284,54.4468584 11.3679284,53.0588584 10.1399284,52.6038584 C8.90192841,52.1458584 7.50192841,52.7808584 7.04392841,54.0188584 C6.58992841,55.2468584 7.23892841,56.6398584 8.47792841,57.0978584 C9.70592841,57.5518584 11.0939284,56.9138584 11.5479284,55.6858584 M5.24192841,53.3528584 C6.07492841,51.1008584 8.55392841,49.9698584 10.8069284,50.8028584 C13.0589284,51.6358584 14.1829284,54.0998584 13.3499284,56.3528584 C12.5169284,58.6038584 10.0639284,59.7328584 7.81192841,58.8988584 C5.55892841,58.0658584 4.40892841,55.6048584 5.24192841,53.3528584" id="Fill-59"></path>
                        <path d="M15.8540284,47.4685584 L15.2660284,46.4865584 C15.1780284,46.3255584 15.3110284,46.1395584 15.4050284,46.0955584 C15.4490284,46.0665584 16.4290284,45.6285584 16.8190284,44.9395584 C17.0560284,44.5225584 16.9670284,44.0715584 16.6020284,43.8645584 C16.1640284,43.6155584 15.6220284,43.7915584 14.9380284,44.3415584 C14.0740284,45.0375584 12.7350284,45.7685584 11.4820284,45.0575584 C10.4490284,44.4715584 9.86102841,43.0755584 10.7730284,41.4685584 C11.3890284,40.3835584 12.4160284,39.8625584 12.8230284,39.6785584 C12.9670284,39.5955584 13.1430284,39.7225584 13.1920284,39.8055584 L13.6940284,40.7945584 C13.7680284,40.9325584 13.7550284,41.1735584 13.6290284,41.2255584 C13.5230284,41.2905584 12.5170284,41.7265584 12.1560284,42.3635584 C11.9430284,42.7395584 12.0330284,43.1625584 12.3150284,43.3225584 C12.7010284,43.5415584 13.1710284,43.3945584 13.9730284,42.7595584 C14.7580284,42.1285584 16.1290284,41.1955584 17.5480284,42.0005584 C18.6240284,42.6105584 19.1820284,44.1555584 18.3120284,45.6895584 C17.5420284,47.0465584 16.5520284,47.4785584 16.1760284,47.5825584 C16.0120284,47.6275584 15.9530284,47.6355584 15.8540284,47.4685584" id="Fill-61"></path>
                        <path d="M20.6113284,33.4749584 C20.9283284,33.0669584 20.8713284,32.4749584 20.4443284,32.1439584 C20.0473284,31.8339584 19.4783284,31.9399584 19.1613284,32.3469584 L18.4613284,33.2469584 L19.9113284,34.3749584 L20.6113284,33.4749584 Z M16.0983284,33.7819584 C16.0043284,33.7079584 15.9773284,33.5659584 16.0583284,33.4619584 L17.8353284,31.1789584 C18.7413284,30.0129584 20.4333284,29.7929584 21.5803284,30.6849584 C22.7553284,31.5989584 22.9673284,33.2999584 22.0683284,34.4559584 L21.2953284,35.4509584 L23.5213284,37.1829584 C23.6163284,37.2569584 23.6353284,37.4079584 23.5613284,37.5029584 L22.6923284,38.6209584 C22.6113284,38.7249584 22.4663284,38.7349584 22.3713284,38.6609584 L16.0983284,33.7819584 Z" id="Fill-63"></path>
                        <path d="M23.9028284,24.5496584 C23.8208284,24.4616584 23.8268284,24.3096584 23.9148284,24.2276584 L24.9608284,23.2566584 C25.0568284,23.1666584 25.2008284,23.1796584 25.2828284,23.2676584 L27.3398284,25.4826584 L29.8538284,23.1486584 L27.7968284,20.9336584 C27.7148284,20.8456584 27.7118284,20.7006584 27.8078284,20.6116584 L28.8538284,19.6396584 C28.9418284,19.5576584 29.0938284,19.5636584 29.1758284,19.6516584 L34.5798284,25.4696584 C34.6618284,25.5576584 34.6558284,25.7106584 34.5688284,25.7926584 L33.5228284,26.7636584 C33.4258284,26.8536584 33.2818284,26.8396584 33.1998284,26.7516584 L31.0528284,24.4406584 L28.5398284,26.7746584 L30.6868284,29.0866584 C30.7688284,29.1746584 30.7718284,29.3186584 30.6748284,29.4086584 L29.6288284,30.3806584 C29.5408284,30.4616584 29.3888284,30.4556584 29.3068284,30.3676584 L23.9028284,24.5496584 Z" id="Fill-65"></path>
                        <path d="M34.8594284,15.2913584 C34.7934284,15.1913584 34.8134284,15.0483584 34.9234284,14.9753584 L39.0614284,12.2273584 C39.1714284,12.1543584 39.3104284,12.1913584 39.3774284,12.2913584 L40.1004284,13.3803584 C40.1674284,13.4803584 40.1464284,13.6233584 40.0364284,13.6963584 L37.2684284,15.5353584 L38.0914284,16.7743584 L40.3704284,15.2613584 C40.4694284,15.1943584 40.6194284,15.2253584 40.6864284,15.3243584 L41.4094284,16.4143584 C41.4824284,16.5243584 41.4454284,16.6643584 41.3454284,16.7303584 L39.0674284,18.2433584 L39.9634284,19.5923584 L42.7314284,17.7543584 C42.8414284,17.6813584 42.9814284,17.7183584 43.0474284,17.8183584 L43.7714284,18.9073584 C43.8374284,19.0073584 43.8174284,19.1503584 43.7074284,19.2233584 L39.5694284,21.9713584 C39.4594284,22.0443584 39.3194284,22.0073584 39.2534284,21.9073584 L34.8594284,15.2913584 Z" id="Fill-67"></path>
                        <path d="M49.9365284,10.5642584 C50.3835284,10.3592584 50.5755284,9.76925835 50.3655284,9.31125835 C50.1555284,8.85325835 49.6035284,8.65725835 49.1555284,8.86225835 L47.5405284,9.60325835 L48.3215284,11.3052584 L49.9365284,10.5642584 Z M45.2075284,9.03625835 C45.1575284,8.92725835 45.1995284,8.78925835 45.3195284,8.73325835 L48.5825284,7.23725835 C49.8915284,6.63625835 51.4455284,7.20425835 52.0415284,8.50225835 C52.5015284,9.50625835 52.2065284,10.6192584 51.4325284,11.4362584 L54.1985284,13.5222584 C54.3395284,13.6282584 54.3435284,13.8382584 54.1585284,13.9232584 L52.7075284,14.5892584 C52.6205284,14.6292584 52.5295284,14.6052584 52.4875284,14.5712584 L49.7105284,12.3452584 L48.9575284,12.6902584 L50.2335284,15.4732584 C50.2835284,15.5822584 50.2305284,15.7252584 50.1215284,15.7752584 L48.8235284,16.3712584 C48.7035284,16.4262584 48.5705284,16.3672584 48.5205284,16.2582584 L45.2075284,9.03625835 Z" id="Fill-69"></path>
                        <path d="M57.3008284,4.12675835 C57.2678284,4.01075835 57.3308284,3.88075835 57.4588284,3.84475835 L62.2398284,2.49375835 C62.3678284,2.45775835 62.4888284,2.53575835 62.5218284,2.65075835 L62.8778284,3.90975835 C62.9108284,4.02475835 62.8478284,4.15575835 62.7198284,4.19075835 L59.5208284,5.09575835 L59.9258284,6.52775835 L62.5598284,5.78375835 C62.6748284,5.75075835 62.8078284,5.82575835 62.8408284,5.94075835 L63.1968284,7.19975835 C63.2328284,7.32775835 63.1548284,7.44875835 63.0398284,7.48175835 L60.4058284,8.22675835 L60.8468284,9.78575835 L64.0468284,8.88075835 C64.1738284,8.84475835 64.2948284,8.92275835 64.3278284,9.03875835 L64.6838284,10.2977584 C64.7168284,10.4127584 64.6538284,10.5437584 64.5268284,10.5787584 L59.7438284,11.9307584 C59.6168284,11.9667584 59.4948284,11.8887584 59.4628284,11.7727584 L57.3008284,4.12675835 Z" id="Fill-71"></path>
                    </g>
                    <g id="Group-27-Copy" transform="translate(50.000000, 49.000000)">
                        <g id="Group-3" transform="translate(0.479998, -0.000000)">
                            <mask id="mask-2" fill="white">
                                <use xlink:href="#path-1"></use>
                            </mask>
                            <g id="Clip-2"></g>
                            <path d="M59.7925072,4.79979239 L53.672139,11.2952033 L42.5409244,22.519017 L45.3321977,22.519017 C45.9277187,22.519017 46.4110171,23.006707 46.4110171,23.6081735 C46.4110171,24.20964 45.9277187,24.69733 45.3321977,24.69733 L38.9863255,24.69733 L36.2448113,26.6731956 C35.75569,27.0033077 35.0966467,26.8916679 34.7414515,26.4189344 C34.5741762,26.1839031 34.5069485,25.8911823 34.5556489,25.6064739 C34.596409,25.3863991 34.7059849,25.1844858 34.868496,25.0311813 C34.9653674,24.9702869 35.0516518,24.8939017 35.124173,24.8052308 L42.0941513,19.783573 L42.0941513,9.45180998 C42.0941513,8.85034347 42.5774497,8.36265349 43.1735001,8.36265349 C43.7690211,8.36265349 44.2528489,8.85034347 44.2528489,9.45180998 L44.2528489,17.7126266 L51.7304757,10.1686555 L50.7427048,4.17909605 C50.6945338,3.89492182 50.7612321,3.60326932 50.9285074,3.36930633 C51.182067,3.01088357 51.6246053,2.84208835 52.0502043,2.94090833 C52.475274,3.04079664 52.7987081,3.38853616 52.8712294,3.82280993 L53.6054406,8.27024345 L58.2579157,3.26140558 C58.4595988,3.04880907 58.738038,2.92755428 59.0291816,2.92488347 C59.3203252,2.9216785 59.6014111,3.03705751 59.8073291,3.2443124 C60.0111296,3.44782815 60.1254696,3.72559244 60.1233811,4.01457412 C60.1233811,4.31103408 60.0037187,4.59467415 59.7925072,4.79979239 L59.7925072,4.79979239 Z M41.0148025,32.2103197 L41.0148025,31.0127284 L44.2528489,31.0127284 C43.4593502,32.0767792 42.3080095,32.8123204 41.0148025,33.0820723 L41.0148025,32.2103197 Z M50.3965086,31.0127284 L49.6485342,31.0127284 C49.0524838,31.0127284 48.5691854,31.5004183 48.5691854,32.1013507 C48.5691854,32.7028172 49.0524838,33.1905072 49.6485342,33.1905072 L50.0804854,33.1905072 C50.0206686,33.5532032 49.9724976,33.9196384 49.9052699,34.2796637 L48.5691854,34.2796637 C47.973135,34.2796637 47.4903659,34.7673536 47.4903659,35.3688201 C47.4903659,35.9697525 47.973135,36.4574425 48.5691854,36.4574425 L49.4330879,36.4574425 C46.8239117,47.3698397 40.3827561,56.9575149 31.30331,63.4427768 C19.2716676,54.8614629 12.0476004,40.9791245 11.8782077,26.1123254 L14.1448931,24.4249074 C14.5133222,25.8655425 15.800177,26.8729722 17.2744224,26.8751088 L21.6008166,26.8751088 C21.6008166,26.8991461 21.5907589,26.9205126 21.5907589,26.9456182 L21.5907589,28.8349495 L16.1950736,28.8349495 C15.7869432,28.8349495 15.4126913,29.0683784 15.2300648,29.4374844 C15.0474384,29.805522 15.0860811,30.2478082 15.3317004,30.5773863 L16.6270248,32.319823 C17.8694141,33.9837379 19.7306158,35.0654161 21.7807962,35.3154039 C22.4086078,41.0485656 24.7838103,46.444671 28.5792644,50.7580298 C29.2711276,51.5437822 30.2626039,51.9930125 31.3048981,51.9930125 C32.3461335,51.9930125 33.3381392,51.5437822 34.0305317,50.7580298 C35.6757578,48.8895308 37.0658363,46.8068329 38.1621243,44.5649546 C38.3346931,44.2156126 38.3092842,43.8000345 38.0948966,43.4747298 C37.8799797,43.1499592 37.5094333,42.9656733 37.124065,42.9923814 C36.737638,43.0180212 36.3951472,43.2509159 36.2257546,43.6018604 C35.2141629,45.666931 33.9320722,47.5861753 32.4144199,49.3072456 C32.1264524,49.6175937 31.7241449,49.7944014 31.3027807,49.7944014 C30.8808871,49.7944014 30.4785795,49.6175937 30.190612,49.3072456 C26.802759,45.4521978 24.641944,40.6586273 23.9897823,35.5482986 L30.2239612,40.2686889 L30.2239612,42.9913131 C30.2239612,43.5927796 30.7072596,44.0799354 31.30331,44.0799354 C31.8993604,44.0799354 32.3821295,43.5927796 32.3821295,42.9913131 L32.3821295,39.7243778 C32.3821295,39.3819799 32.2222651,39.059346 31.9501782,38.8531594 L23.7695718,32.6616867 C23.7695718,32.511053 23.7489271,32.3646926 23.7489271,32.2140589 L23.7489271,27.6197308 L23.8733248,27.5566997 L25.1008922,28.4428746 C26.1664779,29.2136705 27.5872587,29.2590742 28.6994274,28.5593219 C29.811596,27.8595696 30.3960006,26.5530091 30.1794956,25.2480511 C30.1445584,25.0381254 30.0889764,24.8314047 30.0148672,24.6316281 C30.8628891,24.4323856 31.7442603,24.4323856 32.5917529,24.6316281 C32.5171142,24.8319389 32.4615323,25.0397279 32.426595,25.2501878 C32.2111488,26.5530091 32.7944947,27.8574329 33.9050753,28.5571852 C35.0145971,29.2569376 36.4327312,29.2136705 37.4988462,28.4471479 L38.7332952,27.557768 L38.8545168,27.6197308 L38.8545168,32.2103197 C38.8550462,34.6626579 38.5083206,37.1027103 37.823339,39.4556943 C37.7412895,39.7339927 37.7719919,40.0336576 37.9096234,40.2889871 C38.0477843,40.5437824 38.2801698,40.7323416 38.557021,40.8130001 C38.6560098,40.842379 38.7587041,40.8568014 38.8619277,40.8568014 C39.3399326,40.8568014 39.7618262,40.5379066 39.8962816,40.074254 C40.3435841,38.518774 40.6543137,36.9275051 40.8268825,35.3175406 C42.8765336,35.0659502 44.7366766,33.9832037 45.9790658,32.319823 L47.2749196,30.5773863 C47.5194803,30.2478082 47.5591817,29.805522 47.3760259,29.4374844 C47.1933994,29.0683784 46.8196769,28.8349495 46.4110171,28.8349495 L41.0148025,28.8349495 L41.0148025,26.9466866 C41.0148025,26.9226493 41.0079209,26.9007486 41.0058035,26.8783138 L45.3321977,26.8783138 C46.8037963,26.8729722 48.0869457,25.8660767 48.4548453,24.4281123 L50.7273536,26.1123254 C50.7030034,27.7506005 50.5923688,29.386739 50.3965086,31.0127284 L50.3965086,31.0127284 Z M21.5907589,32.2103197 L21.5907589,33.0820723 C20.2980812,32.8123204 19.1472699,32.0767792 18.3532418,31.0127284 L21.5907589,31.0127284 L21.5907589,32.2103197 Z M56.7058555,1.75186353 L55.0161638,3.57175376 L54.9997539,3.47346793 C54.747253,1.89715562 53.3979346,0.739092222 51.8157014,0.740159808 C51.6341336,0.740159808 51.454154,0.755651247 51.2757623,0.78716681 C50.4277404,0.928719762 49.6702376,1.4057265 49.1710586,2.11188878 C48.6713503,2.81858522 48.4712552,3.69621352 48.6136509,4.55140702 L49.4193247,9.42884101 L46.4110171,12.4586084 L46.4110171,9.45180998 C46.4110171,7.64794462 44.9616512,6.18487467 43.1735001,6.18487467 C41.3858782,6.18487467 39.935983,7.64794462 39.935983,9.45180998 L39.935983,15.3868849 L31.9432966,9.45180998 C31.5626925,9.16923824 31.0433982,9.16923824 30.6633234,9.45180998 L27.4258064,11.8592785 C27.1076658,12.0868315 26.9356264,12.4708941 26.9769158,12.8624349 C27.0182053,13.2534415 27.2654127,13.5921003 27.6232547,13.7480756 C27.981626,13.9035168 28.3955793,13.8517031 28.7057796,13.6123985 L31.30331,11.6755267 L39.935983,18.0998941 L39.935983,18.6682426 L34.1321673,22.8453901 C32.3127843,22.1354887 30.2954237,22.1354887 28.4760408,22.8453901 L22.6701077,18.6623668 L22.6701077,18.0950867 L26.1236003,15.5273695 C26.4486225,15.3019531 26.6259554,14.9157539 26.5867834,14.5199398 C26.547082,14.1246599 26.2966985,13.7811937 25.933563,13.6268208 C25.5704275,13.4713797 25.1527687,13.528535 24.8436271,13.7753179 L22.6701077,15.3900899 L22.6701077,9.45180998 C22.6701077,7.64794462 21.2207418,6.18487467 19.4325906,6.18487467 C17.6444394,6.18487467 16.1950736,7.64794462 16.1950736,9.45180998 L16.1950736,12.4570059 L13.1862366,9.42243106 L13.9924397,4.54499707 C14.263468,2.77692057 13.074014,1.1183473 11.3250348,0.824558155 C9.57658507,0.530234847 7.91865449,1.71019889 7.60633679,3.47133128 L7.59045623,3.57175376 L5.85047609,1.69844733 C4.56944416,0.465067073 2.55420097,0.465067073 1.27316904,1.69844733 C0.0233688834,2.95906984 0.00695897028,4.99850068 1.23505569,6.27995552 L7.43165062,12.8517516 L9.26585542,14.7026233 C9.6898664,15.1155306 10.3626728,15.1091206 10.7787435,14.6898034 C11.1948142,14.269952 11.2011665,13.5904978 10.7919773,13.1631681 L8.97577051,11.3315264 L2.77970493,4.75919607 C2.37316257,4.33079808 2.38216155,3.65294639 2.79876161,3.23523164 C3.21747907,2.83621257 3.86858207,2.82552932 4.29947463,3.21012602 L9.00065005,8.27558507 L9.73539068,3.82975404 C9.8179696,3.30520688 10.2647427,2.91900769 10.7909186,2.9174052 C10.857617,2.91793936 10.9232566,2.92381515 10.9883669,2.93663504 C11.5706542,3.04133081 11.9607866,3.59899602 11.8639152,4.18764264 L10.8761443,10.1686555 L18.3532418,17.7147633 L18.3532418,9.45180998 C18.3532418,8.85034347 18.8365402,8.36265349 19.4325906,8.36265349 C20.0281117,8.36265349 20.5114101,8.85034347 20.5114101,9.45180998 L20.5114101,19.7825047 L27.5258539,24.8351438 C27.5782597,24.8933675 27.6359591,24.9446471 27.7000107,24.9889825 C27.8847546,25.1476287 28.0096817,25.3650326 28.0536179,25.6064739 C28.1023183,25.8906481 28.0356199,26.1833689 27.8683447,26.4178661 C27.5136788,26.898612 26.8466952,27.010786 26.3570446,26.6710589 L23.6202946,24.69733 L17.2744224,24.69733 C16.678372,24.69733 16.1950736,24.20964 16.1950736,23.6081735 C16.1950736,23.006707 16.678372,22.519017 17.2744224,22.519017 L20.0635782,22.519017 L14.3703971,16.7741038 C14.1030743,16.4733706 13.6933558,16.3473083 13.3053408,16.44506 C12.9178551,16.5433458 12.6150658,16.8494207 12.519253,17.2414957 C12.4239697,17.6330365 12.5515435,18.0464779 12.8500981,18.3151614 L15.349169,20.8369406 L10.16893,24.6919884 C9.88943212,24.89497 9.72268623,25.2202747 9.72003947,25.5680142 C9.71686336,41.6056966 17.5618605,56.6103096 30.6829094,65.661152 C30.8628891,65.7877484 31.076218,65.8545186 31.2953697,65.8524317 C31.5229911,65.8524317 31.745319,65.7840092 31.9321802,65.6542078 C41.9046432,58.7667219 48.9423785,48.3436172 51.643662,36.4574425 L51.8067024,36.4574425 C52.4027528,36.4574425 52.8855219,35.9697525 52.8855219,35.3688201 C52.8823457,34.883801 52.5578529,34.4623471 52.0936112,34.3384215 C52.1629563,33.9580981 52.20901,33.5761722 52.2688267,33.1905072 L52.8855219,33.1905072 C53.4815722,33.1905072 53.9648707,32.7028172 53.9648707,32.1013507 C53.9648707,31.5004183 53.4815722,31.0127284 52.8855219,31.0127284 L52.5705574,31.0127284 C52.7764753,29.2051239 52.8818164,27.3873703 52.8855219,25.5680142 C52.8839338,25.2240138 52.7214227,24.9013799 52.446689,24.69733 L47.26645,20.8422823 L55.2167882,12.8213044 L61.3376858,6.3253593 C62.6017785,5.04978024 62.6017785,2.98203881 61.3376858,1.70645976 C60.0413027,0.439961455 57.9773591,0.460259614 56.7058555,1.75186353 L56.7058555,1.75186353 Z" id="Fill-1" fill="#C2735D" mask="url(#mask-2)"></path>
                        </g>
                    </g>
                </g>
            </g>
        </g>
    </g>
</svg>