<?xml version="1.0" encoding="UTF-8"?>
<svg width="17px" height="14px" viewBox="0 0 17 14" version="1.1" xmlns="http://www.w3.org/2000/svg" xmlns:xlink="http://www.w3.org/1999/xlink">
    <!-- Generator: Sketch 58 (84663) - https://sketch.com -->
    <title>Path</title>
    <desc>Created with Sketch.</desc>
    <g id="Page-1" stroke="none" stroke-width="1" fill="none" fill-rule="evenodd">
        <g id="Home" transform="translate(-1234.000000, -7803.000000)" fill="#2D4032">
            <g id="Instagram" transform="translate(0.000000, 2952.000000)">
                <g id="Footer" transform="translate(0.000000, 4474.000000)">
                    <g id="Group-8" transform="translate(1215.000000, 358.000000)">
                        <path d="M35.1999996,20.5972624 C34.6037486,20.8683112 33.9639799,21.0521333 33.2917847,21.1342002 C33.9781417,20.7125416 34.5035308,20.043732 34.75254,19.2492421 C34.1087213,19.6397251 33.3980643,19.9232658 32.6408455,20.0769715 C32.0344827,19.4133487 31.1719902,19 30.2153416,19 C28.3800268,19 26.8919274,20.5266555 26.8919274,22.4084906 C26.8919274,22.6753845 26.9212833,22.9360595 26.9779834,23.1853288 C24.2164084,23.0430288 21.7676368,21.6856667 20.1287077,19.6231053 C19.8422161,20.1257717 19.6792364,20.7114825 19.6792364,21.336706 C19.6792364,22.5196149 20.2663814,23.5633469 21.1572241,24.1739874 C20.6125908,24.1553037 20.1003577,24.0015981 19.6519187,23.74611 L19.6519187,23.7886913 C19.6519187,25.4399679 20.7978588,26.8181047 22.3173259,27.131762 C22.0389343,27.2086148 21.745375,27.2511962 21.4416775,27.2511962 C21.2270801,27.2511962 21.0195503,27.2293895 20.8160706,27.1878401 C21.2392036,28.5431383 22.4661438,29.5287011 23.9198314,29.5557218 C22.7829973,30.4696458 21.3495597,31.0128025 19.7926366,31.0128025 C19.5243832,31.0128025 19.2601534,30.9961827 19,30.9660662 C20.4708935,31.9350363 22.2171346,32.5 24.0939552,32.5 C30.2072945,32.5 33.5489469,27.3052104 33.5489469,22.8000327 L33.5378028,22.3586585 C34.1907274,21.8808946 34.7555842,21.2806279 35.1999996,20.5972624 Z" id="Path"></path>
                    </g>
                </g>
            </g>
        </g>
    </g>
</svg>